<svg width="800" height="800" xmlns="http://www.w3.org/2000/svg"><g fill="#212529" fill-rule="evenodd"><path d="M60.658 41.96c.902-.52 1.851-.648 2.847-.38.996.266 1.755.85 2.275 1.753l7.5 12.99c.521.902.648 1.851.381 2.847s-.851 1.755-1.753 2.276l-23.816 13.75c-.902.52-1.851.647-2.847.38-.996-.266-1.755-.851-2.275-1.753l-7.5-12.99c-.521-.903-.648-1.852-.381-2.848.267-.996.851-1.754 1.753-2.275l1.624-.938-2.813-4.87a11.542 11.542 0 0 1-1.581-5.944 11.936 11.936 0 0 1 1.587-5.923A11.543 11.543 0 0 1 40 33.68a11.543 11.543 0 0 1 5.943-1.582c2.112.013 4.087.542 5.923 1.587a11.542 11.542 0 0 1 4.356 4.341l2.812 4.871 1.624-.937zm-2.64 16.68l-1.874-3.249c-.443-.766-1.073-1.26-1.892-1.479-.818-.219-1.61-.107-2.377.336-.767.442-1.26 1.073-1.48 1.891-.218.818-.107 1.61.336 2.377l1.875 3.248c.443.767 1.073 1.26 1.891 1.48.819.218 1.611.107 2.378-.336.767-.443 1.26-1.073 1.479-1.891.22-.819.107-1.611-.335-2.378zm-4.397-12.617L50.81 41.15c-.781-1.353-1.92-2.23-3.413-2.63-1.494-.4-2.918-.21-4.271.571-1.353.781-2.23 1.92-2.63 3.413-.4 1.494-.21 2.918.571 4.271l2.813 4.871 9.742-5.624z" opacity=".25"/><path d="M76.272 352.432c.777.514 1.313 1.181 1.608 2.004.294.822.298 1.662.01 2.52-.286.856-.835 1.52-1.647 1.988l-32.476 18.75c-.812.469-1.66.613-2.547.433-.886-.18-1.611-.603-2.176-1.27-.565-.666-.875-1.464-.931-2.394l-.012-37.52c-.011-.956.284-1.773.885-2.451a3.975 3.975 0 0 1 2.233-1.29c.887-.18 1.742-.028 2.565.46l32.488 18.77zm-22.44 5.197a3.461 3.461 0 0 0-1.67 2.183c-.258.96-.14 1.87.356 2.726a3.461 3.461 0 0 0 2.182 1.672c.96.257 1.87.139 2.727-.356a3.461 3.461 0 0 0 1.671-2.183c.258-.96.139-1.87-.356-2.726a3.461 3.461 0 0 0-2.183-1.672 3.461 3.461 0 0 0-2.726.356zm-9.421-9.445l5.853 8.89c.105.18.281.303.53.37a.904.904 0 0 0 .712-.095l3.248-1.875a.904.904 0 0 0 .438-.569c.067-.249.048-.464-.056-.644l-4.771-9.514c-.157-.27-.36-.44-.608-.506a.904.904 0 0 0-.712.095l-4.33 2.5a.904.904 0 0 0-.439.569c-.066.249-.022.509.135.78z"/><path d="M53.158 428.97c.902-.521 1.851-.648 2.847-.381s1.755.851 2.275 1.753l13.75 23.816c.521.902.648 1.851.381 2.847s-.851 1.755-1.753 2.275l-23.816 13.75c-.902.521-1.851.648-2.847.381s-1.755-.851-2.275-1.753l-13.75-23.816c-.521-.902-.648-1.851-.381-2.847s.851-1.755 1.753-2.275l23.816-13.75zm16.707 26.438l-13.75-23.816c-.182-.315-.433-.516-.753-.602-.32-.086-.638-.038-.954.145l-23.816 13.75c-.316.182-.516.433-.602.753-.086.32-.038.638.145.954l13.75 23.816c.182.316.433.516.753.602.32.086.638.038.954-.145l23.816-13.75c.316-.182.516-.433.602-.753.086-.32.038-.638-.145-.954zm-16.85-14.81a.904.904 0 0 1 .713-.095.904.904 0 0 1 .568.439l.313.541c.13.226.162.463.095.712a.904.904 0 0 1-.438.569L47.5 446.67l1.562 2.706c.26.451.324.926.19 1.424a1.808 1.808 0 0 1-.876 1.138l-3.247 1.875c-.451.26-.926.323-1.424.19a1.808 1.808 0 0 1-1.138-.877l-1.562-2.706-2.436 1.406a.904.904 0 0 1-.712.095.904.904 0 0 1-.569-.438l-.312-.541a.904.904 0 0 1-.095-.712.904.904 0 0 1 .438-.569l2.436-1.406-1.563-2.706a1.808 1.808 0 0 1-.19-1.424c.133-.498.426-.877.877-1.138l3.247-1.875c.451-.26.926-.324 1.424-.19.498.133.877.426 1.137.877l1.563 2.706 6.766-3.906zm-6.43 9.487l-3.75-6.495-2.165 1.25 3.75 6.495 2.165-1.25zm13.763.714a.904.904 0 0 1 .712-.095.904.904 0 0 1 .569.438l.312.541c.13.226.162.463.096.712a.904.904 0 0 1-.439.569l-1.353.781 1.563 2.707c.26.45.324.925.19 1.423a1.808 1.808 0 0 1-.877 1.138l-3.247 1.875c-.451.26-.926.324-1.424.19a1.808 1.808 0 0 1-1.138-.876l-1.562-2.707-7.848 4.531a.904.904 0 0 1-.712.096.904.904 0 0 1-.569-.439l-.313-.54a.904.904 0 0 1-.095-.713.904.904 0 0 1 .439-.569l7.848-4.53-1.563-2.707a1.808 1.808 0 0 1-.19-1.424c.133-.498.426-.877.877-1.137l3.247-1.875c.451-.26.926-.324 1.424-.19.498.133.877.425 1.138.876l1.562 2.706 1.353-.781zm-1.018 6.361l-3.75-6.495-2.165 1.25 3.75 6.495 2.165-1.25z" opacity=".25"/><path d="M55.996 657.01l1.088.635c.123.11.201.245.234.406a.753.753 0 0 1-.075.495l-1.347 2.04 2.44-.146a.753.753 0 0 1 .467.182c.123.11.201.245.234.406l.006 1.26a.47.47 0 0 1-.115.427.723.723 0 0 1-.406.234l-4.359.262-2.406 3.644a.723.723 0 0 1-.406.235.47.47 0 0 1-.427-.115l-1.088-.634a.723.723 0 0 1-.235-.406.753.753 0 0 1 .076-.495l1.347-2.04-2.441.146a.753.753 0 0 1-.466-.182.723.723 0 0 1-.234-.406l-.006-1.26a.47.47 0 0 1 .114-.427.723.723 0 0 1 .406-.234l4.36-.262 2.406-3.645a.723.723 0 0 1 .406-.234.47.47 0 0 1 .427.114zm9.613-4.287l-1.05 3.493 2.851 4.94c.339.586.417 1.217.236 1.893-.18.676-.564 1.183-1.15 1.522l-17.321 10c-.587.338-1.218.417-1.894.236-.676-.181-1.183-.565-1.521-1.152l-3.75-6.495-4.94-5.899a85.868 85.868 0 0 1-8.085-11.66c-.755-1.308-1.13-2.685-1.123-4.132a8.326 8.326 0 0 1 1.101-4.11 7.918 7.918 0 0 1 2.986-3.031l11.84-6.836a7.715 7.715 0 0 1 4.085-1.05 8.423 8.423 0 0 1 4.074 1.12c1.257.718 2.263 1.731 3.018 3.04l1.719 2.976a7.208 7.208 0 0 1 4.382.402c1.423.592 2.513 1.541 3.268 2.85a14.458 14.458 0 0 1 1.886 5.766c.216 2.04.012 4.083-.612 6.127zm-2.358-.803c.483-1.663.639-3.346.467-5.05a11.861 11.861 0 0 0-1.548-4.79c-.625-1.083-1.594-1.772-2.907-2.066-1.312-.295-2.555-.104-3.728.573l-2.097 1.211c-.902.521-1.505 1.275-1.807 2.261-.303.987-.206 1.909.288 2.766.495.857 1.184 1.451 2.068 1.783a3.67 3.67 0 0 0 2.66-.002.481.481 0 0 1 .435-.026c.156.06.273.159.35.294l.626 1.082a.597.597 0 0 1 .045.47.687.687 0 0 1-.342.423c-1.457.601-2.941.66-4.452.18-1.51-.481-2.67-1.42-3.477-2.819-.416-.722-.675-1.535-.776-2.438l-6.09 3.515c-2.12 1.224-4.372 1.593-6.758 1.106a.49.49 0 0 1-.418-.255.49.49 0 0 1-.012-.49l.276-1.241a.53.53 0 0 1 .26-.33.84.84 0 0 1 .484-.1c1.746.316 3.385.03 4.919-.855l7.78-4.492.04.068c.55-1.34 1.41-2.349 2.583-3.026l2.165-1.25-1.484-2.57c-.807-1.399-1.965-2.31-3.472-2.732-1.507-.423-2.937-.244-4.29.537l-11.84 6.836c-1.353.781-2.235 1.937-2.645 3.466-.41 1.53-.211 2.994.596 4.392a86.917 86.917 0 0 0 6.078 9.12c1.267 1.675 2.891 3.654 4.871 5.939 1.202 1.351 1.893 2.185 2.076 2.5l1.623-.937a.597.597 0 0 1 .47-.046c.178.048.306.14.384.275l.625 1.082a.597.597 0 0 1 .046.47.597.597 0 0 1-.275.384l-1.623.937 2.5 4.33 17.32-10-2.5-4.33-1.624.938a.597.597 0 0 1-.47.046.597.597 0 0 1-.383-.275l-.625-1.082a.597.597 0 0 1-.046-.47.597.597 0 0 1 .274-.384l2.3-1.328 1.08-3.6z" opacity=".5"/><path d="M55.947 759.113l2.806 1.267-20.906 12.07c-.902.521-1.851.648-2.847.381s-1.755-.851-2.276-1.753l-8.75-15.156c-.52-.902-.647-1.85-.38-2.847.266-.996.85-1.754 1.753-2.275l5.345-3.086 2.806 1.266-6.901 3.985c-.316.182-.517.433-.602.753-.086.32-.038.639.144.954l8.75 15.156c.183.315.434.516.754.602.32.086.638.038.954-.145l19.35-11.172zm12.891-25.484l5.625 9.742c.26.452.324.926.19 1.424a1.808 1.808 0 0 1-.876 1.138l-.542.312.625 1.083c.521.902.648 1.851.381 2.847s-.851 1.755-1.753 2.275l-7.172 4.141 6.438 2.869c.194.128.338.3.433.516a.828.828 0 0 1-.011.683l-.211.573a.963.963 0 0 1-.396.409c-.27.156-.56.174-.871.052L28.246 742.54a1.167 1.167 0 0 1-.433-.516.828.828 0 0 1 .011-.683l.211-.573a.963.963 0 0 1 .395-.409c.271-.156.562-.173.872-.052l7.953 3.618L59.988 730.8c.902-.521 1.851-.648 2.847-.381s1.755.851 2.275 1.753l.625 1.083.542-.313c.45-.26.925-.324 1.423-.19.498.133.878.426 1.138.877zm-1.853 1.79l-2.165 1.25-1.875-3.247c-.182-.315-.433-.516-.753-.602-.32-.086-.638-.037-.954.145L40.06 745.19l22.449 10.133 8.728-5.039c.316-.182.516-.433.602-.753.086-.32.038-.638-.145-.954l-1.875-3.248 2.165-1.25-5-8.66z"/><path d="M146.961 766.813c.26.451.324.926.19 1.424a1.808 1.808 0 0 1-.876 1.137c-.45.26-.925.324-1.423.19a1.808 1.808 0 0 1-1.138-.876 1.808 1.808 0 0 1-.19-1.423c.133-.498.425-.878.876-1.138.451-.26.926-.324 1.424-.19.498.133.877.425 1.137.876zm18.227-26.4c-.03 2.242-.587 4.323-1.673 6.243-1.087 1.92-2.622 3.454-4.607 4.6-.947.546-1.937.967-2.97 1.263l-4.975 18.57c-.483 1.662-1.47 2.922-2.958 3.782-1.488.86-3.069 1.065-4.74.617-1.672-.448-2.938-1.416-3.798-2.905-.859-1.488-1.082-3.073-.67-4.755l4.976-18.57a13.157 13.157 0 0 1-1.94-2.578 12.227 12.227 0 0 1-1.67-6.252c.006-2.23.563-4.31 1.672-6.243 1.11-1.934 2.645-3.467 4.607-4.6 1.962-1.132 4.046-1.69 6.252-1.67 2.207.02 4.288.577 6.244 1.673.822.487 1.228 1.215 1.216 2.184-.012.97-.424 1.688-1.236 2.157l-7.375 4.258-.103 2.946 2.603 1.384 7.375-4.258c.812-.468 1.64-.466 2.486.009.845.474 1.273 1.19 1.284 2.145zm-11.99 12.515c-2.628.135-5.047-.513-7.257-1.944l-4.69 17.502c-.266.996-.14 1.945.382 2.847.52.902 1.279 1.487 2.275 1.754.996.267 1.945.14 2.847-.381.902-.521 1.487-1.28 1.754-2.276l4.69-17.502zm9.47-12.504l-8.592 4.961-5.207-2.767.207-5.893 8.592-4.96a10.12 10.12 0 0 0-4.962-1.33c-1.787-.022-3.47.424-5.048 1.335-1.579.911-2.812 2.135-3.7 3.67a9.728 9.728 0 0 0-1.33 4.962c.002 1.774.458 3.45 1.37 5.028.911 1.579 2.135 2.812 3.67 3.7a9.728 9.728 0 0 0 4.962 1.33c1.773-.002 3.45-.458 5.028-1.37 1.579-.911 2.806-2.146 3.68-3.703a10.12 10.12 0 0 0 1.33-4.963z" opacity=".5"/><path d="M257.99 734.84l-8.66 5-5-8.66.406-.235c.451-.26.926-.324 1.424-.19l10.458 2.802c.498.134.878.426 1.138.877l.234.406zm-7.951 7.477l9.201-5.312 12.813 22.192c.26.45.324.925.19 1.423a1.808 1.808 0 0 1-.876 1.138l-22.734 13.125c-.45.26-.925.324-1.423.19a1.808 1.808 0 0 1-1.138-.876l-18.125-31.394a1.808 1.808 0 0 1-.19-1.423c.133-.498.425-.878.876-1.138l13.532-7.812 5.313 9.201c.26.451.64.743 1.137.877.498.133.973.07 1.424-.19zm.957 21.189l.532-2.202a.775.775 0 0 0-.108-.344c-.065-.113-.155-.165-.272-.158l-4.112-.874 1.3-3.998c.064-.097.064-.202-.002-.315a.775.775 0 0 0-.243-.265l-2.174-.64c-.07-.019-.163.004-.275.07-.113.064-.179.133-.198.204l-2.015 6.666c-.038.142-.031.258.02.349.053.09.15.154.292.192l6.781 1.588c.071.02.163-.004.276-.069.113-.065.179-.133.198-.204zm5.471 1.351c.116-.007.2-.07.251-.19.051-.12.05-.224-.001-.315l-4.048-16.697a.693.693 0 0 0-.224-.232.511.511 0 0 0-.32-.086l-2.207.553c-.116.007-.2.07-.25.19-.052.12-.051.225 0 .315l4.048 16.698c.052.09.127.167.224.231a.511.511 0 0 0 .32.086l2.207-.553zm6.49-13.76c.037-.142.03-.258-.022-.348-.052-.09-.149-.155-.291-.193l-6.78-1.588c-.072-.019-.164.004-.277.07-.112.064-.178.132-.197.203l-.533 2.203c.007.116.043.23.108.343.065.113.156.166.272.159l4.113.873-1.3 3.998c-.065.097-.064.202 0 .315a.775.775 0 0 0 .244.265l2.174.64c.07.02.163-.004.276-.069.112-.065.178-.133.197-.204l2.015-6.667z"/><path d="M562.694 747.192c1.459-.181 2.873.055 4.242.708 1.37.652 2.445 1.655 3.226 3.009l3.125 5.412c.52.902.648 1.851.38 2.847-.266.996-.85 1.755-1.753 2.276l-23.815 13.75c-.902.52-1.852.648-2.848.38-.996-.266-1.754-.85-2.275-1.753l-3.125-5.412a7.3 7.3 0 0 1-.979-4.352 7.54 7.54 0 0 1 1.658-4.16l-3.626-2.687a1.006 1.006 0 0 1-.348-.837c.015-.339.157-.587.428-.743l3.924-2.266a9.449 9.449 0 0 1-2.882-3.117l-.43-.744c-1.51.51-2.758.796-3.746.855-.988.06-1.606-.125-1.853-.554-.248-.428-.065-1.075.548-1.94s1.586-1.863 2.918-2.993c-.328-1.194-.512-2.501-.55-3.922-.077-1.279-.05-2.377.082-3.295a2.41 2.41 0 0 1 .769-1.481c.43-.4.937-.617 1.518-.652l2.441-.146c.814-.049 1.446-.414 1.895-1.094l1.347-2.04c.321-.487.762-.817 1.324-.99a2.41 2.41 0 0 1 1.667.075c.86.345 1.825.87 2.894 1.576 1.212.744 2.252 1.557 3.122 2.438 1.644-.589 2.995-.933 4.05-1.031 1.056-.098 1.708.067 1.955.495.248.429.099 1.056-.447 1.882-.545.826-1.416 1.765-2.613 2.817l.43.744a9.449 9.449 0 0 1 1.258 4.055l3.992-2.305a.86.86 0 0 1 .838-.033.917.917 0 0 1 .53.686l.729 4.542zm-6.331 21.065l-3.377-9.597-3.186-1.77-4.185.252 10.748 11.115zm5.412-3.125l-4.252-14.865-2.31 3.499-.062 3.644 6.624 7.722zm-8.154-22.716l-.283-.648c-.079-.135-.343-.073-.794.188l-.068.039a18.341 18.341 0 0 0-5.082 3.385l-.434.341c-.226.13-.397.199-.513.206a18.341 18.341 0 0 0-5.473 2.708l-.067.04c-.451.26-.638.458-.56.593l.42.57c.33.05.52.12.572.21l.292.193c.843.836 1.56 1.295 2.147 1.376.427.115.892.087 1.395-.084.736-.184 1.296-.567 1.681-1.15.424-.726.516-1.712.278-2.957-.066-.323.059-.576.374-.758.316-.182.597-.164.844.055.888.81 1.775 1.2 2.66 1.17.653-.016 1.268-.251 1.848-.706.418-.422.684-.846.798-1.273.224-.55.185-1.4-.117-2.548l-.021-.349c-.053-.09-.018-.29.103-.601z" opacity=".5"/><path d="M660.658 741.96c.902-.52 1.851-.648 2.847-.38.996.266 1.755.85 2.275 1.753l7.5 12.99c.521.902.648 1.851.381 2.847s-.851 1.755-1.753 2.276l-23.816 13.75c-.902.52-1.851.647-2.847.38-.996-.266-1.755-.851-2.275-1.753l-7.5-12.99c-.521-.903-.648-1.852-.381-2.848.267-.996.851-1.754 1.753-2.275l1.083-.625-2.5-4.33a12.227 12.227 0 0 1-1.67-6.253c.006-2.228.563-4.31 1.672-6.243 1.11-1.933 2.645-3.466 4.607-4.599 1.962-1.133 4.053-1.678 6.272-1.636 2.22.041 4.295.617 6.229 1.726a12.227 12.227 0 0 1 4.58 4.573l2.46 4.262 1.083-.625zm-23.068 7.545l2.5 4.33 17.32-10-2.5-4.33c-.911-1.579-2.134-2.812-3.67-3.7a9.728 9.728 0 0 0-4.962-1.33c-1.773.002-3.45.458-5.028 1.37-1.579.911-2.812 2.134-3.7 3.67a9.728 9.728 0 0 0-1.33 4.962c.002 1.773.458 3.45 1.37 5.028zm33.068 9.775c.316-.182.516-.433.602-.753.086-.32.038-.638-.145-.954l-7.5-12.99c-.182-.316-.433-.517-.753-.603-.32-.085-.638-.037-.954.145l-23.816 13.75c-.316.182-.516.434-.602.754-.086.32-.038.638.145.954l7.5 12.99c.182.316.433.516.753.602.32.086.638.038.954-.145l23.816-13.75z"/><path d="M743.01 734.834l-7.983 4.609c-.27.156-.467.39-.588.7-.122.311-.104.602.052.872l6.772 14.854c.163.387.423.628.778.724.356.095.692.051 1.008-.13l7.171-4.141 4.029 14.633c.118.413.357.696.716.85.359.153.73.12 1.114-.102.383-.221.583-.578.6-1.069l-.34-24.34c-.028-.465-.248-.82-.66-1.063-.41-.244-.82-.248-1.225-.014l-7.037 4.063-2.543-9.718c-.092-.368-.335-.633-.73-.796a1.223 1.223 0 0 0-1.134.068zm-1.25-2.165c1.083-.625 2.199-.698 3.347-.219 1.15.48 1.852 1.307 2.11 2.481l1.792 6.543 4.195-2.422c.812-.469 1.654-.624 2.527-.467.873.158 1.61.575 2.21 1.25.6.676.893 1.47.878 2.38l.34 24.34c-.002.724-.167 1.376-.494 1.955a3.62 3.62 0 0 1-1.37 1.378c-1.038.599-2.124.67-3.26.213-1.136-.457-1.868-1.282-2.196-2.476l-3.21-11.498-4.33 2.5c-.948.547-1.95.66-3.008.338-1.057-.321-1.828-1.004-2.31-2.049l-6.772-14.854a3.712 3.712 0 0 1-.143-2.669c.283-.915.854-1.62 1.71-2.115l7.984-4.61zM367.945 742.083c.316-.183.634-.231.954-.145.32.086.572.286.754.602.182.316.23.634.145.954-.086.32-.287.571-.603.754l-4.33 2.5.938 1.623c1.406 2.436 2.019 5.06 1.837 7.87l6.122 1.698c.33.05.586.233.768.549.183.316.23.634.145.954-.086.32-.286.571-.602.754-.316.182-.63.212-.94.09l-5.937-1.533a14.012 14.012 0 0 1-2.338 4.778 13.385 13.385 0 0 1-4.088 3.623l-2.165 1.25a13.385 13.385 0 0 1-5.182 1.729c-1.83.215-3.6.093-5.307-.364l-1.64 5.909c-.05.33-.233.585-.549.767-.316.183-.634.231-.954.145-.32-.086-.571-.286-.753-.602-.183-.316-.213-.629-.092-.94l1.591-6.15c-2.525-1.249-4.49-3.09-5.897-5.527l-.937-1.623-4.33 2.5c-.316.182-.634.23-.954.144-.32-.085-.572-.286-.754-.602-.182-.316-.23-.634-.145-.954.086-.32.287-.571.602-.753l4.33-2.5-4.726-8.187-4.628-1.297c-.33-.05-.586-.234-.768-.55-.182-.315-.23-.633-.145-.953.086-.32.287-.572.603-.754.315-.182.628-.213.94-.091l4.656 1.19 2.841-1.64c-.911-1.579-1.368-3.255-1.369-5.028a9.728 9.728 0 0 1 1.33-4.963c.888-1.535 2.12-2.758 3.7-3.67 1.578-.91 3.254-1.367 5.028-1.369a9.728 9.728 0 0 1 4.962 1.33c1.535.888 2.758 2.121 3.67 3.7l2.706-1.563 1.069-3.774c.05-.33.233-.586.549-.768.315-.182.633-.23.953-.145.32.086.572.287.754.603.182.315.213.628.092.94l-.962 3.802 4.726 8.187 4.33-2.5zm-26.627-6.277c-1.805 1.041-2.974 2.558-3.507 4.55-.534 1.992-.28 3.89.761 5.695l12.99-7.5c-1.04-1.804-2.558-2.973-4.55-3.507-1.992-.534-3.89-.28-5.694.762zm18.202 29.183c1.76-1.015 3.129-2.393 4.11-4.132a11.465 11.465 0 0 0 1.5-5.602c.021-1.997-.477-3.874-1.492-5.634l-6.563-11.366-21.65 12.5 6.562 11.366c1.016 1.76 2.393 3.13 4.132 4.11a11.465 11.465 0 0 0 5.603 1.501c1.996.02 3.874-.477 5.633-1.493l-9.219-15.967a.904.904 0 0 1-.095-.712.904.904 0 0 1 .438-.569l.542-.312a.904.904 0 0 1 .711-.095.904.904 0 0 1 .57.438l9.218 15.967z" opacity=".25"/><path d="M455.224 727.236c.244-.202.51-.264.794-.188.284.076.492.227.622.453l4.531 7.848c.13.225.157.48.081.765-.076.285-.263.483-.56.594l-12.46 4.668c-.548.196-.995-.057-1.34-.76l-.04-.067-2.706 1.562 1.055 1.827c1.607-.447 3.21-.35 4.812.288 1.602.64 2.833 1.703 3.692 3.192l9.688 16.779c.26.45.324.925.19 1.423a1.808 1.808 0 0 1-.877 1.138l-9.742 5.625c-.452.26-.926.324-1.424.19a1.808 1.808 0 0 1-1.138-.876l-9.648-16.712c-.86-1.488-1.172-3.097-.937-4.826.234-1.73.946-3.178 2.136-4.346l-1.054-1.827-1.015.586c-1.444.833-2.432 1.464-2.967 1.893-.798.701-1.343 1.527-1.636 2.478-.312 1.023-.345 2.425-.098 4.206.1.485-.013.94-.338 1.368-.324.428-.735.68-1.232.757-.497.076-.96-.048-1.387-.372-.428-.324-.669-.742-.723-1.252-.299-1.872-.303-3.493-.012-4.864.354-1.888 1.203-3.49 2.547-4.808-.785-.63-1.292-1.404-1.522-2.324-.23-.92-.157-1.834.22-2.743a4.196 4.196 0 0 1 1.818-2.087c.834-.482 1.715-.675 2.642-.579a4.419 4.419 0 0 1 2.442 1.026c.7.588 1.172 1.353 1.415 2.296l3.925-2.266-.04-.068c-.39-.676-.386-1.19.013-1.54l10.273-8.457zm-17.824 14.44c.316-.182.516-.434.602-.754.086-.32.038-.638-.145-.954-.182-.315-.433-.516-.753-.602-.32-.086-.638-.037-.954.145-.316.182-.517.433-.602.754-.086.32-.038.638.144.953.183.316.434.517.754.603.32.086.638.037.954-.145zM159.408 639.795c.902-.52 1.851-.648 2.847-.381s1.755.851 2.275 1.754l8.75 15.155c.521.902.648 1.851.381 2.847s-.851 1.755-1.753 2.276l-23.816 13.75c-.902.52-1.851.647-2.847.38-.996-.266-1.755-.851-2.275-1.753l-8.75-15.155c-.521-.903-.648-1.852-.381-2.848.267-.996.851-1.754 1.753-2.275l2.165-1.25-1.875-3.248c-1.015-1.759-1.513-3.636-1.493-5.633.02-1.996.52-3.864 1.501-5.603.981-1.739 2.35-3.116 4.11-4.131 1.76-1.016 3.637-1.514 5.633-1.494 1.996.02 3.87.532 5.622 1.535a11.066 11.066 0 0 1 4.152 4.144l1.836 3.18 2.165-1.25zm-20.278 7.377l1.875 3.248 12.99-7.5-1.875-3.248c-1.042-1.804-2.558-2.973-4.55-3.507-1.993-.533-3.89-.28-5.695.762-1.804 1.042-2.973 2.559-3.507 4.55-.534 1.993-.28 3.891.762 5.695zm30.903 11.026l-8.75-15.155-23.816 13.75 8.75 15.155 23.816-13.75z"/><path d="M267.038 645.042c.42-.002.802.139 1.145.421.344.283.575.631.693 1.044.692 2.969.673 5.956-.057 8.964a2.054 2.054 0 0 1-.654 1.054 1.67 1.67 0 0 1-1.113.417l-2.975.003a12.776 12.776 0 0 1-1.904 3.265l1.485 2.57c.208.362.284.754.228 1.177-.057.423-.262.797-.615 1.122a18.404 18.404 0 0 1-7.714 4.453c-.458.144-.884.135-1.279-.028a1.813 1.813 0 0 1-.904-.786l-1.485-2.57a12.776 12.776 0 0 1-3.779.016l-1.49 2.575a1.67 1.67 0 0 1-.918.755c-.4.14-.813.154-1.24.04-2.969-.873-5.566-2.35-7.791-4.433a2.06 2.06 0 0 1-.558-1.122 1.746 1.746 0 0 1 .208-1.203l1.49-2.574a15.059 15.059 0 0 1-1.874-3.248l-2.975.004a1.746 1.746 0 0 1-1.145-.421 2.06 2.06 0 0 1-.693-1.044c-.692-2.968-.673-5.956.057-8.964.114-.426.332-.778.654-1.054a1.67 1.67 0 0 1 1.113-.417l2.975-.003a12.776 12.776 0 0 1 1.904-3.265l-1.485-2.57a1.813 1.813 0 0 1-.228-1.177c.056-.423.262-.797.615-1.122a18.404 18.404 0 0 1 7.713-4.453c.458-.144.885-.135 1.28.028.394.163.696.425.904.786l1.485 2.57a12.776 12.776 0 0 1 3.779-.016l1.49-2.575a1.67 1.67 0 0 1 .918-.755c.4-.14.813-.153 1.24-.04 2.969.873 5.566 2.35 7.791 4.433.299.31.484.683.557 1.122.073.439.004.84-.207 1.203l-1.49 2.574a15.059 15.059 0 0 1 1.874 3.248l2.975-.004zm-.52 9.412c.468-2.315.47-4.602.008-6.861l-4.167-.03c-.477-1.348-.899-2.338-1.263-2.97-.365-.63-1.011-1.49-1.94-2.578l2.058-3.624a17.046 17.046 0 0 0-5.946-3.423l-2.058 3.624c-1.416-.265-2.497-.393-3.243-.383-.746.01-1.8.137-3.162.382l-2.11-3.653a16.981 16.981 0 0 0-5.953 3.437l2.11 3.654c-.894 1.057-1.532 1.906-1.913 2.547-.382.641-.812 1.641-1.29 3l-4.167-.03a17.046 17.046 0 0 0-.008 6.861l4.167.03c.477 1.348.898 2.338 1.263 2.97.365.63 1.011 1.49 1.94 2.578l-2.058 3.624a17.046 17.046 0 0 0 5.946 3.423l2.058-3.624c1.416.265 2.497.393 3.243.383.746-.01 1.8-.137 3.162-.382l2.11 3.653a16.981 16.981 0 0 0 5.953-3.437l-2.11-3.654c.894-1.057 1.525-1.917 1.893-2.58.369-.665.805-1.653 1.31-2.967l4.167.03zm-20.268-9.95c1.804-1.04 3.702-1.295 5.694-.761 1.993.534 3.51 1.703 4.551 3.507 1.042 1.804 1.296 3.702.762 5.695-.534 1.992-1.703 3.509-3.507 4.55-1.804 1.042-3.702 1.296-5.695.762-1.992-.534-3.509-1.703-4.55-3.507-1.042-1.804-1.296-3.702-.762-5.694.534-1.993 1.703-3.51 3.507-4.551zm6.25 10.826c1.173-.677 1.94-1.691 2.302-3.043.363-1.352.205-2.614-.472-3.787-.677-1.173-1.691-1.94-3.043-2.302-1.352-.363-2.614-.205-3.787.472-1.173.677-1.94 1.691-2.302 3.043-.363 1.352-.205 2.614.472 3.787.677 1.173 1.691 1.94 3.043 2.302 1.352.363 2.614.205 3.787-.472z" opacity=".25"/><path d="M559.447 631.112c1.623-.937 3.36-1.158 5.21-.662 1.85.495 3.244 1.555 4.181 3.179l5.625 9.742c.938 1.624 1.158 3.361.663 5.21-.496 1.85-1.556 3.244-3.18 4.182l-31.393 18.125c-1.624.937-3.36 1.158-5.21.663-1.85-.496-3.244-1.556-4.181-3.18l-5.625-9.742c-.938-1.624-1.159-3.361-.663-5.21.496-1.85 1.555-3.244 3.18-4.182l31.393-18.125zm-20.769 36.528l7.037-4.062-8.75-15.156-7.037 4.063c-.767.443-1.26 1.073-1.479 1.891-.219.818-.107 1.61.335 2.378l5.625 9.742c.443.767 1.074 1.26 1.892 1.48.818.219 1.61.107 2.377-.336zm9.012-13.141c-.451.26-.743.64-.877 1.137-.133.499-.07.973.19 1.424.261.451.64.743 1.138.877.498.133.973.07 1.424-.19.45-.261.743-.64.877-1.138.133-.498.07-.973-.19-1.424a1.808 1.808 0 0 0-1.139-.877 1.808 1.808 0 0 0-1.423.19zm-4.436-3.934c.26.451.64.743 1.137.877.498.133.973.07 1.424-.19.45-.261.743-.64.877-1.138.133-.498.07-.973-.19-1.424a1.808 1.808 0 0 0-1.139-.877 1.808 1.808 0 0 0-1.423.19c-.451.261-.743.64-.877 1.138-.133.498-.07.973.19 1.424zm10.245 2.745c.26.451.64.743 1.137.877.498.133.973.07 1.424-.19.451-.261.743-.64.877-1.138.133-.498.07-.973-.19-1.424a1.808 1.808 0 0 0-1.138-.877 1.808 1.808 0 0 0-1.424.19c-.451.261-.743.64-.877 1.139-.133.498-.07.972.19 1.423zm-1.189-5.809c.451-.26.743-.64.877-1.137.133-.498.07-.973-.19-1.424a1.808 1.808 0 0 0-1.138-.877 1.808 1.808 0 0 0-1.424.19c-.451.261-.743.64-.877 1.138-.133.498-.07.973.19 1.424.261.451.64.743 1.138.877.498.133.973.07 1.424-.19zm18.905-2.255l-5.625-9.742c-.442-.767-1.073-1.26-1.89-1.48-.82-.219-1.612-.107-2.378.336l-7.037 4.062 8.75 15.156 7.037-4.063c.766-.442 1.26-1.073 1.479-1.891.219-.818.107-1.61-.336-2.378z"/><path d="M655.954 632.407l-1.601 5.976 5.588 1.555c.285.076.518.272.7.588.183.316.236.616.16.9l-.83 3.095a15.319 15.319 0 0 1 2.73 3.477c1.484 2.57 2.213 5.292 2.187 8.164a16.418 16.418 0 0 1-2.16 8.057c-1.412 2.5-3.405 4.492-5.976 5.976-2.57 1.485-5.292 2.214-8.164 2.188a16.418 16.418 0 0 1-8.057-2.159c-2.5-1.413-4.492-3.405-5.977-5.976-1.484-2.571-2.213-5.293-2.187-8.164a16.418 16.418 0 0 1 2.159-8.058c1.413-2.5 3.405-4.492 5.976-5.976a15.319 15.319 0 0 1 4.102-1.646l.829-3.095c.076-.285.272-.518.588-.7.316-.183.616-.236.9-.16l5.618 1.448 1.601-5.976 1.814.486zm-.115 13.237l.676-2.735-8.111-2.174-.783 2.708-.754.255c-1.104.276-1.885.486-2.343.63-.71.23-1.425.553-2.147.97a12.227 12.227 0 0 0-4.572 4.579 12.411 12.411 0 0 0-1.673 6.243 12.227 12.227 0 0 0 1.67 6.253 12.227 12.227 0 0 0 4.58 4.572 12.411 12.411 0 0 0 6.243 1.673c2.229.006 4.313-.55 6.252-1.67a12.227 12.227 0 0 0 4.573-4.58 12.411 12.411 0 0 0 1.673-6.243 12.227 12.227 0 0 0-1.67-6.252 11.174 11.174 0 0 0-1.375-1.913c-.35-.399-.922-.971-1.713-1.717a4.995 4.995 0 0 0-.526-.599zm4.294-17.093c.13.226.162.463.095.712a.904.904 0 0 1-.438.569l-1.624.937a.904.904 0 0 1-.712.095.904.904 0 0 1-.569-.438.904.904 0 0 1-.095-.712.904.904 0 0 1 .438-.569l1.624-.937a.904.904 0 0 1 .712-.095.904.904 0 0 1 .569.438zm-6.403-1.716l.937 1.624c.13.226.162.463.095.712a.904.904 0 0 1-.438.569.904.904 0 0 1-.712.095.904.904 0 0 1-.569-.438l-.937-1.624a.904.904 0 0 1-.095-.712.904.904 0 0 1 .438-.569.904.904 0 0 1 .712-.095.904.904 0 0 1 .569.438zm2.018 2.714c-.285-.076-.486-.216-.603-.419-.117-.203-.138-.446-.061-.731l.486-1.814c.076-.285.216-.486.419-.603.203-.117.446-.138.73-.061.286.076.486.216.604.419.117.203.137.446.061.73l-.486 1.815c-.076.285-.216.486-.419.603-.203.117-.447.137-.731.061zm-5.265 1.506c-.214-.057-.385-.198-.516-.424a.904.904 0 0 1-.095-.712.904.904 0 0 1 .439-.568c.225-.13.445-.167.658-.11l1.814.486c.285.076.492.227.622.453.13.225.162.463.096.712a.904.904 0 0 1-.439.568c-.225.13-.48.158-.765.081l-1.814-.486zm9.557.617c.214.057.386.198.516.424.13.225.162.463.095.712a.904.904 0 0 1-.438.568c-.226.13-.445.167-.659.11L657.74 633c-.285-.076-.492-.227-.622-.453a.904.904 0 0 1-.096-.712.904.904 0 0 1 .439-.569c.225-.13.48-.157.765-.08l1.814.486zm-14.621 17.643c.26.451.324.926.19 1.424a1.808 1.808 0 0 1-.877 1.137c-1.037.6-1.713 1.486-2.028 2.66-.314 1.173-.172 2.28.427 3.317.26.45.324.925.19 1.423a1.808 1.808 0 0 1-.876 1.138c-.451.26-.926.324-1.424.19a1.808 1.808 0 0 1-1.138-.876 7.923 7.923 0 0 1-1.084-4.066 8.115 8.115 0 0 1 1.087-4.055 7.923 7.923 0 0 1 2.971-2.978c.451-.26.926-.324 1.424-.19.498.133.877.425 1.138.876z" opacity=".25"/><path d="M759.525 637.03c2.105 1.251 3.958 2.873 5.56 4.865 1.601 1.992 2.71 4.148 3.328 6.468.618 2.32.577 4.854-.121 7.602-.73 3.008-2.168 5.672-4.316 7.995.229-2.417-.147-4.787-1.126-7.108-.98-2.321-2.276-4.098-3.89-5.332-1.712-1.297-3.46-1.67-5.248-1.12 1.788 1.013 2.976 2.342 3.565 3.986.555 1.484.571 2.918.048 4.303-.524 1.385-1.424 2.325-2.7 2.822-1.413.575-2.974.423-4.683-.454.212 1.2.598 2.39 1.16 3.57 1.024 2.296 2.42 3.985 4.188 5.07-5.423 2.168-9.904 1.959-13.443-.629-2.683-1.939-4.223-4.372-4.62-7.3-.398-2.928.255-6.147 1.957-9.656.973-2.065 1.465-3.973 1.477-5.724a9.01 9.01 0 0 0-1.23-4.16c-.618-.967-1.465-1.861-2.541-2.683a19.378 19.378 0 0 0-2.4-1.501l-1.145-.422c1.16-.49 2.67-1 4.528-1.532 3.652-.966 7.109-1.488 10.371-1.567 4.522-.085 8.282.751 11.281 2.508zM362.937 638.054a.89.89 0 0 1 .945-.005c.314.18.459.457.434.832a11.135 11.135 0 0 1-1.492 5.462c-.97 1.704-2.336 3.063-4.095 4.079-1.76 1.015-3.63 1.524-5.614 1.527a11.158 11.158 0 0 1-5.583-1.468c-1.739-.98-3.116-2.35-4.132-4.11a11.066 11.066 0 0 1-1.512-5.666 11.37 11.37 0 0 1 1.481-5.637c.98-1.739 2.35-3.116 4.11-4.132 1.76-1.016 3.619-1.518 5.58-1.507 1.96.01 3.786.49 5.476 1.438.337.167.504.431.503.793a.89.89 0 0 1-.476.816l-7.104 4.102-.52 5.35 4.895 2.227 7.104-4.101zM355 651.026l-5.787 21.383c-.317 1.325-1.084 2.34-2.302 3.043-1.218.703-2.485.878-3.801.526-1.316-.353-2.326-1.138-3.03-2.356-.702-1.218-.86-2.48-.472-3.787l5.68-21.412a12.3 12.3 0 0 0 4.585 2.315 12.3 12.3 0 0 0 5.127.288zm-8.508 17.45a1.808 1.808 0 0 0-1.137-.876 1.808 1.808 0 0 0-1.424.19c-.451.261-.743.64-.877 1.138-.133.498-.07.973.19 1.424.261.45.64.743 1.138.877.498.133.973.07 1.424-.19.45-.261.743-.64.877-1.139.133-.498.07-.972-.19-1.423z"/><path d="M469.027 639.113c.422.418.61.925.564 1.523a2.066 2.066 0 0 1-.768 1.481c-.467.39-1.043.512-1.729.367l-.067.039c-2.438-.577-4.262-.246-5.47.993-1.146 1.142-1.79 3.048-1.933 5.716-.041.866-.395 1.477-1.062 1.832s-1.35.343-2.05-.035l-.253-.125c-.938-.48-1.67-.81-2.194-.988a6.487 6.487 0 0 0-2.676-.26l6.797 11.773c.938 1.624 1.159 3.36.663 5.21s-1.555 3.244-3.18 4.181c-1.623.938-3.36 1.159-5.21.663-1.85-.495-3.243-1.555-4.18-3.179a1.808 1.808 0 0 1-.191-1.424c.133-.498.426-.877.877-1.137.45-.26.925-.324 1.423-.19.498.133.878.425 1.138.876.443.767 1.073 1.26 1.891 1.48.819.218 1.611.107 2.378-.336.767-.443 1.26-1.073 1.479-1.891.22-.819.107-1.611-.335-2.378l-6.797-11.772c-.501.59-.863 1.37-1.085 2.34-.145.685-.241 1.613-.288 2.782-.022.795-.354 1.392-.995 1.792-.64.4-1.347.402-2.117.005-2.383-1.21-4.345-1.64-5.888-1.292-1.697.499-2.905 1.948-3.624 4.348l-.068.04c-.216.665-.61 1.103-1.18 1.313-.572.209-1.127.184-1.668-.075a1.85 1.85 0 0 1-1.038-1.25c-.93-3.072-1.093-6.165-.487-9.282.595-2.929 1.782-5.69 3.563-8.281 1.782-2.592 4.018-4.786 6.71-6.581l-.663-1.15a1.808 1.808 0 0 1-.19-1.424c.133-.498.425-.877.876-1.137s.926-.324 1.424-.19c.498.133.877.425 1.137.876l.664 1.15c2.901-1.434 5.93-2.281 9.088-2.54 3.158-.26 6.144.12 8.96 1.142a19.019 19.019 0 0 1 7.754 4.995zm-6.426-.35c-2.85-1.602-6.063-2.273-9.641-2.011-3.326.176-6.5 1.137-9.523 2.881-3.022 1.745-5.44 4.014-7.256 6.806-1.97 2.942-2.987 6.025-3.05 9.249 1.19-1.168 2.65-1.921 4.38-2.258 1.845-.344 3.749-.12 5.71.672.502-3.297 1.993-5.662 4.474-7.094a8.367 8.367 0 0 1 4.08-1.137c1.456-.03 2.913.227 4.369.77.346-2.004 1.026-3.69 2.041-5.058 1.105-1.42 2.577-2.36 4.416-2.82z" opacity=".5"/><path d="M63.368 536.967a.58.58 0 0 1 .35.294.58.58 0 0 1 .08.45l-.59 2.416a.898.898 0 0 1-.362.39.58.58 0 0 1-.45.079l-1.213-.383-7.31 27.495c-.617 2.16-1.884 3.794-3.801 4.901-1.917 1.107-3.943 1.374-6.077.802-2.135-.572-3.762-1.827-4.881-3.767-1.12-1.94-1.394-3.976-.822-6.11l7.417-27.467-1.242-.275a.58.58 0 0 1-.35-.294.58.58 0 0 1-.08-.45l.59-2.416a.898.898 0 0 1 .362-.39.58.58 0 0 1 .45-.079l17.93 4.804zm-13.124 29.769l3.66-13.66-10.554 6.094-1.43 5.336c-.305 1.138-.158 2.226.441 3.263.6 1.038 1.468 1.709 2.606 2.014 1.138.305 2.226.158 3.264-.441 1.037-.599 1.708-1.468 2.013-2.606zm5.033-18.783l2.317-8.644-8.325-2.23-4.546 16.968 10.554-6.094z"/><path d="M146.663 532.72c-1.76 1.015-3.13 2.393-4.11 4.131a11.465 11.465 0 0 0-1.501 5.603c-.02 1.997.477 3.874 1.493 5.633a11.653 11.653 0 0 0 2.786 3.263l-4.861 18.143 3.125 5.412 6.495-3.75-2.5-4.33 4.33-2.5-2.5-4.33 3.247-1.875 1.201-4.482a11.653 11.653 0 0 0 4.045-1.433c1.759-1.015 3.129-2.393 4.11-4.132a11.465 11.465 0 0 0 1.5-5.602c.02-1.997-.477-3.874-1.493-5.634-1.015-1.759-2.393-3.129-4.131-4.11a11.465 11.465 0 0 0-5.603-1.5c-1.997-.02-3.874.477-5.633 1.493zm-1.25-2.165c2.165-1.25 4.467-1.873 6.905-1.867 2.44.005 4.716.615 6.83 1.83 2.115 1.214 3.798 2.904 5.048 5.07 1.25 2.164 1.872 4.466 1.867 6.905a13.545 13.545 0 0 1-1.83 6.83c-1.215 2.115-2.905 3.797-5.07 5.047a13.302 13.302 0 0 1-3.28 1.352l-.886 3.308a1.808 1.808 0 0 1-.877 1.138l-1.285.742 1.562 2.707c.26.45.324.925.19 1.423a1.808 1.808 0 0 1-.876 1.138l-2.706 1.562 1.562 2.707c.26.45.324.925.19 1.423a1.808 1.808 0 0 1-.876 1.138l-7.578 4.375c-.45.26-.925.324-1.423.19a1.808 1.808 0 0 1-1.138-.876l-3.555-6.157a1.808 1.808 0 0 1-.19-1.424l4.547-16.968a13.302 13.302 0 0 1-2.164-2.81c-1.25-2.166-1.873-4.468-1.867-6.906a13.545 13.545 0 0 1 1.83-6.83c1.215-2.115 2.905-3.797 5.07-5.047zm7.466 5.432c-.36.208-.599.526-.713.952-.114.427-.067.821.141 1.182.208.36.526.599.953.713.427.114.82.067 1.181-.141.361-.208.599-.526.713-.953.115-.427.068-.82-.14-1.181a1.499 1.499 0 0 0-.953-.713 1.499 1.499 0 0 0-1.182.14zm-1.094-1.895c.902-.52 1.851-.648 2.847-.38.997.266 1.755.85 2.276 1.753.52.902.648 1.851.38 2.847-.266.996-.85 1.755-1.753 2.275-.902.521-1.851.648-2.847.381s-1.755-.851-2.275-1.753c-.521-.902-.648-1.851-.381-2.847s.851-1.755 1.753-2.276z" opacity=".25"/><path d="M251.982 530.37l15.077 8.616c.558.34 1.005.803 1.344 1.39.338.585.516 1.205.531 1.857l-.145 17.405a3.525 3.525 0 0 1-.466 1.848 3.62 3.62 0 0 1-1.37 1.377l-15.156 8.75a3.62 3.62 0 0 1-1.877.498 3.525 3.525 0 0 1-1.834-.52l-15.146-8.577a3.852 3.852 0 0 1-1.343-1.389 3.425 3.425 0 0 1-.464-1.897l.078-17.366a3.525 3.525 0 0 1 .466-1.848 3.62 3.62 0 0 1 1.37-1.377l15.156-8.75a3.62 3.62 0 0 1 1.877-.498c.666.007 1.3.167 1.902.481zm14.433 11.874a1.328 1.328 0 0 0-.625-1.082l-15.078-8.615c-.433-.231-.853-.23-1.26.005l-15.155 8.75c-.406.235-.617.597-.634 1.088l-.078 17.366c-.017.49.191.852.625 1.082l15.078 8.616c.433.23.853.228 1.26-.006l15.155-8.75c.406-.234.617-.597.634-1.088l.078-17.366zm-6.886 11.824c-.057.214-.198.385-.424.516-.225.13-.467.18-.726.148l-7.402-2.04-1.935 7.43c-.102.24-.266.425-.491.555-.226.13-.445.167-.659.11l-.96-.257c-.214-.058-.385-.199-.516-.425a1.143 1.143 0 0 1-.148-.726l2.04-7.402-7.43-1.934a1.143 1.143 0 0 1-.555-.492c-.13-.226-.167-.445-.11-.659l.257-.96c.058-.214.199-.385.425-.516.225-.13.467-.18.726-.148l7.363 1.973 1.973-7.364c.103-.24.267-.424.492-.554.226-.13.445-.167.659-.11l.96.258c.214.057.385.198.516.424.13.225.18.467.148.726l-1.973 7.363 7.364 1.974c.24.102.424.266.554.491.13.226.167.445.11.659l-.258.96z"/><path d="M555.453 539.2c.632-.365 1.262-.368 1.89-.009.628.36.94.9.938 1.624l-.033 27.443c-.004.724-.32 1.268-.952 1.632-.542.313-1.087.357-1.637.134-.55-.224-.914-.646-1.091-1.265l-4.466-14.923-8.052 4.649c-.496.286-1.006.34-1.53.162-.524-.179-.907-.53-1.148-1.051l-7.21-17.488a1.749 1.749 0 0 1-.045-1.328c.16-.453.443-.796.849-1.03l9.201-5.313c.541-.313 1.093-.346 1.657-.1.563.247.92.657 1.071 1.231l2.778 10.124 7.78-4.492z" opacity=".25"/><path d="M653.969 558.812l4.243 1.88-20.365 11.758c-.902.521-1.851.648-2.847.381s-1.755-.851-2.276-1.753l-8.75-15.156c-.52-.902-.647-1.85-.38-2.847.266-.996.85-1.754 1.753-2.275l4.33-2.5 4.243 1.88-6.698 3.867 8.75 15.156 17.997-10.39zm14.869-25.183l5.625 9.742c.26.452.324.926.19 1.424a1.808 1.808 0 0 1-.876 1.138l-.542.312.625 1.083c.521.902.648 1.851.381 2.847s-.851 1.755-1.753 2.275l-6.225 3.594 5.641 2.427c.24.102.402.279.487.53a1 1 0 0 1-.026.737l-.738 1.69c-.084.168-.238.317-.464.447-.225.13-.47.122-.736-.026l-42.331-18.32a.846.846 0 0 1-.487-.53 1 1 0 0 1 .026-.737l.738-1.69c.083-.168.238-.317.463-.447.226-.13.471-.122.737.026l8.155 3.5 22.26-12.851c.902-.521 1.851-.648 2.847-.381s1.755.851 2.275 1.753l.625 1.083.542-.313c.45-.26.925-.324 1.423-.19.498.133.878.426 1.138.877zm-2.31 3.498l-2.165 1.25-2.5-4.33-19.824 11.446 19.981 8.67 8.593-4.96-2.5-4.33 2.165-1.25-3.75-6.496z"/><path d="M755.224 527.236c.244-.202.51-.264.794-.188.284.076.492.227.622.453l4.531 7.848c.13.225.157.48.081.765-.076.285-.263.483-.56.594l-12.46 4.668c-.548.196-.995-.057-1.34-.76l-.04-.067-2.706 1.562 1.055 1.827c1.607-.447 3.21-.35 4.812.288 1.602.64 2.833 1.703 3.692 3.192l9.688 16.779c.26.45.324.925.19 1.423a1.808 1.808 0 0 1-.877 1.138l-9.742 5.625c-.452.26-.926.324-1.424.19a1.808 1.808 0 0 1-1.138-.876l-9.648-16.712c-.86-1.488-1.172-3.097-.937-4.826.234-1.73.946-3.178 2.136-4.346l-1.054-1.827-1.015.586c-1.444.833-2.432 1.464-2.967 1.893-.798.701-1.343 1.527-1.636 2.478-.312 1.023-.345 2.425-.098 4.206.1.485-.013.94-.338 1.368-.324.428-.735.68-1.232.757-.497.076-.96-.048-1.387-.372-.428-.324-.669-.742-.723-1.252-.299-1.872-.303-3.493-.012-4.864.354-1.888 1.203-3.49 2.547-4.808-.785-.63-1.292-1.404-1.522-2.324-.23-.92-.157-1.834.22-2.743a4.196 4.196 0 0 1 1.818-2.087c.834-.482 1.715-.675 2.642-.579a4.419 4.419 0 0 1 2.442 1.026c.7.588 1.172 1.353 1.415 2.296l3.925-2.266-.04-.068c-.39-.676-.386-1.19.013-1.54l10.273-8.457zm-17.824 14.44c.316-.182.516-.434.602-.754.086-.32.038-.638-.145-.954-.182-.315-.433-.516-.753-.602-.32-.086-.638-.037-.954.145-.316.182-.517.433-.602.754-.086.32-.038.638.144.953.183.316.434.517.754.603.32.086.638.037.954-.145zM368.61 543.233c.338.586.399 1.213.182 1.879-.216.666-.618 1.169-1.204 1.507l-3.721 2.149.625 1.082a10.827 10.827 0 0 1 1.435 4.674l6.471 1.677c.666.217 1.169.618 1.507 1.204.339.587.418 1.218.236 1.894-.18.676-.564 1.183-1.15 1.522-.587.338-1.223.435-1.908.289l-5.802-1.612c-.971 2.485-2.607 4.392-4.907 5.72l-9.532-16.509a.904.904 0 0 0-.568-.438.904.904 0 0 0-.712.095l-1.624.938a.904.904 0 0 0-.438.569.904.904 0 0 0 .095.711l9.531 16.509c-2.3 1.328-4.77 1.791-7.407 1.39l-1.505 5.83c-.217.666-.618 1.169-1.204 1.507-.587.339-1.218.418-1.894.237-.676-.181-1.183-.565-1.521-1.152-.339-.586-.436-1.222-.29-1.907l1.783-6.443a10.827 10.827 0 0 1-3.33-3.58l-.625-1.082-3.72 2.148c-.587.339-1.223.435-1.909.29a2.267 2.267 0 0 1-1.555-1.132 2.447 2.447 0 0 1-.256-1.927c.181-.676.565-1.183 1.152-1.522l3.788-2.187-2.304-3.992-4.977-1.277c-.666-.216-1.169-.618-1.507-1.204-.339-.587-.418-1.218-.237-1.894.182-.676.565-1.183 1.152-1.521.586-.339 1.222-.435 1.907-.29l5.802 1.612 15.562-8.984 1.505-5.83c.216-.667.618-1.17 1.204-1.508.587-.339 1.218-.417 1.894-.236.676.18 1.183.564 1.521 1.15.339.587.435 1.223.29 1.909l-1.383 4.948 2.305 3.992 3.788-2.188c.587-.338 1.218-.417 1.894-.236.676.181 1.196.587 1.56 1.219zm-28.542-9.592a8.609 8.609 0 0 1 4.374-1.173c1.564 0 3.022.39 4.376 1.172a8.609 8.609 0 0 1 3.202 3.203l-15.155 8.75a8.609 8.609 0 0 1-1.173-4.375c0-1.563.39-3.021 1.173-4.375a8.609 8.609 0 0 1 3.203-3.202z" opacity=".5"/><path d="M460.658 541.96c.902-.52 1.851-.648 2.847-.38.996.266 1.755.85 2.275 1.753l7.5 12.99c.521.902.648 1.851.381 2.847s-.851 1.755-1.753 2.276l-23.816 13.75c-.902.52-1.851.647-2.847.38-.996-.266-1.755-.851-2.275-1.753l-7.5-12.99c-.521-.903-.648-1.852-.381-2.848.267-.996.851-1.754 1.753-2.275l1.624-.938-2.813-4.87a11.542 11.542 0 0 1-1.581-5.944 11.936 11.936 0 0 1 1.587-5.923A11.543 11.543 0 0 1 440 533.68a11.543 11.543 0 0 1 5.943-1.582c2.112.013 4.087.542 5.923 1.587a11.542 11.542 0 0 1 4.356 4.341l2.812 4.871 1.624-.937zm-7.037 4.063l-2.812-4.872c-.781-1.353-1.92-2.23-3.413-2.63-1.494-.4-2.918-.21-4.271.571-1.353.781-2.23 1.92-2.63 3.413-.4 1.494-.21 2.918.571 4.271l2.813 4.871 9.742-5.624zM124.6 457.005c-.678-1.173-.835-2.435-.473-3.787.362-1.352 1.13-2.366 2.302-3.043l6.496-3.75 12.5 21.65-6.496 3.75c-1.172.677-2.435.835-3.786.473-1.352-.363-2.367-1.13-3.044-2.303l-7.5-12.99zm36.47-26.83c1.173-.677 2.435-.835 3.787-.473 1.352.363 2.366 1.13 3.044 2.303l7.5 12.99c.677 1.173.834 2.435.472 3.787-.362 1.352-1.13 2.366-2.303 3.043l-6.495 3.75-12.5-21.65 6.495-3.75zm-13.48 36.65l-12.5-21.65 17.32-10 12.5 21.65-17.32 10zm2.845-22.571c-.451.26-.743.64-.877 1.137-.133.498-.07.973.19 1.424.261.451.64.743 1.138.877.498.133.973.07 1.424-.19.451-.261.743-.64.877-1.138.133-.498.07-.973-.19-1.424a1.808 1.808 0 0 0-1.138-.877 1.808 1.808 0 0 0-1.424.19zm3.75 6.495c-.451.26-.743.64-.877 1.138-.133.498-.07.972.19 1.423.261.451.64.743 1.138.877.498.133.973.07 1.424-.19.451-.261.743-.64.877-1.138.133-.498.07-.973-.19-1.424a1.808 1.808 0 0 0-1.138-.877 1.808 1.808 0 0 0-1.424.19zm-10.245-2.745c-.451.26-.743.64-.877 1.137-.133.498-.07.973.19 1.424.261.451.64.743 1.138.877.498.133.973.07 1.424-.19.45-.261.743-.64.877-1.138.133-.498.07-.973-.19-1.424a1.808 1.808 0 0 0-1.139-.877 1.808 1.808 0 0 0-1.423.19zm3.75 6.495c-.451.26-.743.64-.877 1.137-.133.499-.07.973.19 1.424.261.451.64.743 1.138.877.498.133.973.07 1.424-.19.45-.261.743-.64.877-1.138.133-.498.07-.973-.19-1.424a1.808 1.808 0 0 0-1.139-.877 1.808 1.808 0 0 0-1.423.19z"/><path d="M252.257 437.876l1.601-5.976 2.348.63-1.601 5.976 4.055 1.086c.712.19 1.237.58 1.575 1.166.339.586.413 1.235.222 1.946l-.486 1.815a15.319 15.319 0 0 1 2.729 3.476c1.458 2.526 2.18 5.236 2.168 8.13-.013 2.894-.726 5.592-2.14 8.091-1.413 2.5-3.417 4.499-6.01 5.996-2.594 1.498-5.35 2.217-8.27 2.16a16.657 16.657 0 0 1-8.19-2.31c-2.539-1.48-4.518-3.555-5.939-6.223-1.342-2.533-1.975-5.22-1.9-8.059.074-2.84.82-5.48 2.236-7.922 1.417-2.442 3.366-4.379 5.847-5.81a15.319 15.319 0 0 1 4.101-1.647l.486-1.814c.19-.712.58-1.237 1.166-1.575.586-.339 1.235-.413 1.946-.222l4.056 1.086zm4.887 7.372l.926-3.24-10.565-2.831-.82 3.269-.483.099c-.942.243-1.665.45-2.168.62-.755.255-1.516.604-2.282 1.047-2.12 1.224-3.772 2.87-4.954 4.935a14.358 14.358 0 0 0-1.909 6.695c-.089 2.397.456 4.669 1.635 6.815 1.316 2.487 3.231 4.373 5.747 5.657 2.515 1.285 5.165 1.785 7.948 1.501a13.857 13.857 0 0 0 5.283-1.787c2.165-1.25 3.848-2.944 5.05-5.081a13.845 13.845 0 0 0 1.81-6.864 13.39 13.39 0 0 0-1.828-6.838 13.962 13.962 0 0 0-1.492-2.115 45.744 45.744 0 0 0-1.528-1.554 2.421 2.421 0 0 0-.37-.328zm2.988-16.7c.13.226.162.463.095.712a.904.904 0 0 1-.438.569l-1.624.938a.904.904 0 0 1-.712.095.904.904 0 0 1-.568-.439.904.904 0 0 1-.096-.711.904.904 0 0 1 .439-.57l1.624-.937a.904.904 0 0 1 .711-.095.904.904 0 0 1 .57.438zm-6.403-1.715l.938 1.623c.13.226.161.463.095.712a.904.904 0 0 1-.439.57.904.904 0 0 1-.711.094.904.904 0 0 1-.57-.438l-.937-1.624a.904.904 0 0 1-.095-.712.904.904 0 0 1 .438-.569.904.904 0 0 1 .712-.095.904.904 0 0 1 .569.439zm2.018 2.714c-.285-.077-.485-.216-.603-.42-.117-.202-.137-.446-.061-.73l.486-1.815c.076-.284.216-.485.419-.602.203-.118.447-.138.731-.062.285.076.486.216.603.419.117.203.138.447.061.731l-.486 1.815c-.076.284-.216.485-.419.602-.203.117-.446.138-.731.062zm-5.265 1.506c-.213-.058-.385-.199-.515-.424a.904.904 0 0 1-.096-.712.904.904 0 0 1 .439-.57c.225-.13.445-.166.658-.109l1.815.487c.284.076.492.227.622.452.13.226.162.463.095.712a.904.904 0 0 1-.438.569c-.226.13-.481.157-.766.08l-1.814-.485zm9.558.616c.213.057.385.199.515.424.13.226.162.463.095.712a.904.904 0 0 1-.438.569c-.226.13-.445.166-.659.11l-1.814-.487c-.284-.076-.492-.227-.622-.452a.904.904 0 0 1-.095-.712.904.904 0 0 1 .438-.57c.226-.13.48-.156.765-.08l1.815.486zm-16.87 17.498c.181.316.23.634.144.954-.086.32-.287.572-.602.754-1.173.677-1.94 1.691-2.303 3.043-.362 1.352-.205 2.614.472 3.787.183.316.231.634.145.954-.086.32-.286.571-.602.753-.316.183-.634.231-.954.145-.32-.086-.571-.286-.754-.602-1.041-1.804-1.295-3.702-.761-5.695.533-1.992 1.702-3.509 3.507-4.55.315-.183.633-.23.953-.145.32.086.572.287.754.602z" opacity=".5"/><path d="M569.34 439.654c.421.418.598.932.53 1.543a2.205 2.205 0 0 1-.803 1.5c-.466.39-1.042.513-1.728.367-2.438-.577-4.261-.246-5.47.993-1.145 1.142-1.79 3.048-1.932 5.717-.042.865-.396 1.476-1.063 1.83-.667.356-1.35.344-2.05-.034l-.252-.124c-1.036-.545-1.839-.893-2.408-1.046-1.093-.331-2.133-.362-3.12-.093l6.913 11.976c.86 1.488 1.066 3.069.618 4.74-.448 1.672-1.417 2.938-2.905 3.797-1.489.86-3.069 1.066-4.74.618-1.673-.448-2.938-1.417-3.798-2.905-.182-.316-.23-.634-.145-.954.086-.32.287-.571.603-.754.315-.182.633-.23.954-.144.32.085.57.286.753.602.521.902 1.28 1.486 2.276 1.753.996.267 1.945.14 2.847-.38.902-.521 1.486-1.28 1.753-2.276.267-.996.14-1.945-.38-2.847l-6.915-11.976c-.662.624-1.137 1.469-1.423 2.536-.164.756-.289 1.79-.373 3.102-.023.795-.354 1.393-.995 1.793-.641.4-1.347.401-2.118.004-2.382-1.21-4.332-1.618-5.848-1.224-1.678.428-2.9 1.854-3.664 4.28-.216.667-.61 1.105-1.18 1.314-.572.21-1.139.19-1.702-.056s-.92-.656-1.071-1.23c-.957-3.116-1.11-6.246-.459-9.388.614-3 1.856-5.823 3.727-8.467 1.872-2.644 4.212-4.867 7.02-6.669l-1.25-2.165c-.182-.316-.23-.634-.144-.954.085-.32.286-.571.602-.753.316-.183.634-.231.954-.145.32.086.571.286.753.602l1.25 2.165c2.965-1.531 6.06-2.446 9.286-2.745 3.226-.298 6.29.037 9.196 1.006 3.073 1.052 5.707 2.75 7.9 5.09zm-11.897 9.394c.265-2.98 1.133-5.225 2.606-6.736 1.582-1.635 3.737-2.278 6.464-1.929-2.05-1.883-4.471-3.161-7.265-3.834-2.606-.66-5.325-.76-8.156-.298a23.307 23.307 0 0 0-7.967 2.841 22.994 22.994 0 0 0-6.41 5.46c-1.793 2.208-3.09 4.596-3.893 7.164-.77 2.73-.873 5.466-.312 8.21.633-1.509 1.56-2.69 2.78-3.545 1.22-.855 2.641-1.285 4.263-1.289 1.621-.004 3.3.456 5.035 1.378.147-1.829.49-3.32 1.027-4.472.613-1.437 1.62-2.559 3.018-3.366 1.263-.73 2.655-1.052 4.177-.968 1.522.083 3.066.545 4.633 1.384z"/><path d="M657.075 438.255c1.173-.677 2.435-.834 3.787-.472 1.352.362 2.366 1.13 3.044 2.302l.117.203c1.607 2.68 2.049 5.373 1.324 8.076l-1.687 6.297-2.706 1.562a.597.597 0 0 0-.274.384.597.597 0 0 0 .045.47l.625 1.083a.597.597 0 0 0 .384.274.597.597 0 0 0 .47-.046l2.706-1.562 2.5 4.33c.339.586.418 1.217.236 1.893-.18.676-.564 1.183-1.15 1.522l-17.321 10c-.587.339-1.218.417-1.894.236-.676-.181-1.183-.565-1.521-1.151l-2.5-4.33 2.706-1.563a.597.597 0 0 0 .275-.384.597.597 0 0 0-.046-.47l-.625-1.082a.597.597 0 0 0-.384-.274.597.597 0 0 0-.47.045l-2.706 1.563-4.872-5.938a89.691 89.691 0 0 1-8.543-12.298c-1.042-1.804-1.296-3.702-.762-5.694s1.703-3.51 3.507-4.55l12.99-7.5c1.804-1.043 3.703-1.297 5.695-.763 1.992.534 3.509 1.703 4.55 3.507l1.25 2.165-.676.39c-1.334.711-2.288 1.352-2.86 1.923-.945.966-1.502 2.19-1.67 3.67l-.039-.068-9.946 5.743c-1.533.885-3.173 1.17-4.918.855a.84.84 0 0 0-.484.099.53.53 0 0 0-.26.33l-.344 1.281a.58.58 0 0 0 .08.45.49.49 0 0 0 .418.255c2.386.487 4.639.119 6.758-1.105l8.999-5.196c.118.413.281.8.49 1.161.807 1.398 1.966 2.338 3.477 2.819 1.51.48 2.994.421 4.451-.18a.687.687 0 0 0 .343-.423.597.597 0 0 0-.046-.47l-.625-1.082a.672.672 0 0 0-.35-.294.481.481 0 0 0-.436.026 3.67 3.67 0 0 1-2.66.002c-.884-.332-1.573-.926-2.067-1.783-.495-.857-.591-1.78-.289-2.766.303-.986.905-1.74 1.807-2.26l2.097-1.212zm2.694 23.885a.707.707 0 0 0-.152-.499.598.598 0 0 0-.452-.235l-3.878-.467 1.534-3.593a.598.598 0 0 0 .022-.508.707.707 0 0 0-.355-.382l-1.146-.42a.58.58 0 0 0-.475-.042.638.638 0 0 0-.347.335l-1.841 4.311-4.654-.56a.638.638 0 0 0-.465.132.58.58 0 0 0-.201.432l-.208 1.203a.707.707 0 0 0 .152.498.598.598 0 0 0 .452.236l3.878.467-1.534 3.592a.598.598 0 0 0-.022.51c.068.17.187.297.355.38l1.146.422a.58.58 0 0 0 .475.041.638.638 0 0 0 .347-.336l1.841-4.31 4.654.56a.638.638 0 0 0 .465-.133.58.58 0 0 0 .201-.432l.208-1.202z" opacity=".5"/><path d="M755.871 433.357c.996.267 1.755.851 2.276 1.753l12.968 22.463c.521.902.648 1.851.381 2.847s-.851 1.755-1.753 2.276l-19.486 11.25c-.902.52-1.851.647-2.847.38-.996-.266-1.755-.851-2.275-1.753l-16.25-28.146c-.521-.902-.648-1.851-.381-2.847s.851-1.755 1.753-2.275l13.803-7.97c.902-.52 1.85-.647 2.847-.38l8.964 2.402zm-.657 2.455l-8.965-2.402a2.085 2.085 0 0 0-.669-.065l3.75 6.495 6.495-3.75a2.085 2.085 0 0 0-.611-.278zm13.279 24.718c.315-.182.516-.433.602-.753.086-.32.038-.638-.145-.954l-11.875-20.568-7.036 4.062c-.451.26-.926.324-1.424.19a1.808 1.808 0 0 1-1.137-.876l-4.063-7.036-11.908 6.875c-.316.182-.516.433-.602.753-.086.32-.038.638.145.954l16.25 28.146c.182.316.433.516.753.602.32.086.638.038.954-.145l19.486-11.25zm-15.582 2.23a.59.59 0 0 1-.3-.051.481.481 0 0 1-.205-.198l-3.888-15.797a.59.59 0 0 1 .052-.3.481.481 0 0 1 .197-.205l2.072-.475a.59.59 0 0 1 .3.052.481.481 0 0 1 .205.198l3.888 15.797a.59.59 0 0 1-.052.301.481.481 0 0 1-.197.204l-2.072.475zm-3.119-1.807c-.019.071-.078.15-.178.238-.1.088-.198.1-.295.035l-6.354-1.473c-.142-.038-.24-.103-.292-.193-.052-.09-.059-.206-.02-.349l1.9-6.239c-.007-.116.053-.196.178-.238.126-.043.225-.054.296-.035l2.066.61c.072.02.14.086.205.198.065.113.065.218.001.315l-1.243 3.785 3.9.816c.116-.007.206.046.272.159.065.112.088.204.069.276l-.505 2.095zm9.405-5.43c.007.116-.053.196-.178.238-.126.043-.225.055-.296.036l-2.067-.611c-.07-.02-.139-.085-.204-.198-.065-.113-.065-.218-.001-.315l1.243-3.785-3.9-.816c-.116.007-.206-.046-.272-.158-.065-.113-.088-.205-.069-.276l.505-2.096c.019-.07.078-.15.178-.238.1-.087.198-.1.295-.035l6.354 1.474c.142.038.24.102.291.192.053.09.06.207.021.349l-1.9 6.24zM347.43 465.147c.26.45.324.925.19 1.423a1.808 1.808 0 0 1-.876 1.138c-.451.26-.926.324-1.424.19a1.808 1.808 0 0 1-1.138-.876 1.808 1.808 0 0 1-.19-1.424c.133-.498.426-.877.877-1.138.45-.26.925-.324 1.423-.19.498.133.878.426 1.138.877zm17.769-24.693a12.713 12.713 0 0 1-1.707 6.263 12.227 12.227 0 0 1-4.573 4.58c-.722.416-1.482.765-2.282 1.047l-4.9 18.074c-.496 1.85-1.556 3.244-3.18 4.181-1.623.938-3.36 1.159-5.21.663s-3.25-1.567-4.2-3.213c-.951-1.646-1.165-3.372-.644-5.176l4.794-18.104a13.538 13.538 0 0 1-1.453-2.048 12.227 12.227 0 0 1-1.67-6.252c.006-2.229.563-4.31 1.672-6.243a12.227 12.227 0 0 1 4.573-4.58 12.227 12.227 0 0 1 6.253-1.67c2.228.006 4.32.557 6.277 1.653.822.487 1.37 1.149 1.641 1.984a3.952 3.952 0 0 1-.022 2.539c-.287.857-.837 1.52-1.649 1.989l-6.292 3.633-.026.736.651.346 6.292-3.633c.812-.468 1.661-.613 2.547-.432.886.18 1.63.608 2.23 1.283.6.676.893 1.47.878 2.38zm-12.62 12.518a12.173 12.173 0 0 1-6.083-1.63l-4.364 16.503c-.255.808-.161 1.596.282 2.363.442.767 1.073 1.26 1.89 1.479.82.22 1.612.108 2.378-.335.767-.443 1.242-1.078 1.426-1.906l4.471-16.474zm8.84-12.5l-8.186 4.726-4.353-2.54-.022-5.038 8.186-4.727a8.683 8.683 0 0 0-4.341-1.192c-1.541-.012-3 .379-4.375 1.173a8.68 8.68 0 0 0-3.237 3.222 8.594 8.594 0 0 0-1.172 4.375c0 1.564.391 3.022 1.172 4.375a8.609 8.609 0 0 0 3.203 3.203 8.594 8.594 0 0 0 4.375 1.173 8.68 8.68 0 0 0 4.409-1.193c1.376-.794 2.443-1.861 3.203-3.202a8.683 8.683 0 0 0 1.138-4.356z"/><path d="M463.135 447.657c1.537-.046 2.994.316 4.37 1.085 1.376.769 2.468 1.853 3.275 3.25l2.657 4.602c.468.811.579 1.68.331 2.605-.248.925-.778 1.622-1.59 2.09l-24.357 14.063c-.811.469-1.68.579-2.605.331-.925-.248-1.621-.778-2.09-1.59l-2.656-4.6c-.834-1.444-1.228-2.96-1.184-4.55a9.018 9.018 0 0 1 1.308-4.453l-4.103-3.044c-.291-.192-.418-.465-.381-.817.037-.352.19-.607.462-.763l2.503-1.445a10.671 10.671 0 0 1-1.29-2.233c-2.652.51-4.421-.003-5.307-1.536-1.015-1.76-.243-3.86 2.317-6.3-.358-2.078-.459-3.764-.303-5.057.29-1.79 1.065-3.05 2.328-3.78.451-.26.919-.44 1.403-.539.322-.066.89-.123 1.705-.172l.736.026.346-.651c.45-.68.783-1.144 1.002-1.39.327-.37.717-.685 1.168-.945 1.263-.73 2.742-.772 4.438-.127 1.197.512 2.606 1.442 4.227 2.792 3.394-.997 5.599-.616 6.614 1.143.886 1.533.445 3.321-1.323 5.364.507.67.937 1.414 1.29 2.233l2.502-1.445a.86.86 0 0 1 .839-.033.917.917 0 0 1 .53.686l.838 5.2zm-22.978 3.794c.769 1.54 1.845 2.753 3.228 3.639a8.769 8.769 0 0 0 4.512 1.409c1.625.054 3.16-.335 4.603-1.169 1.443-.833 2.548-1.967 3.313-3.401a8.769 8.769 0 0 0 1.036-4.613c-.075-1.64-.587-3.179-1.537-4.615l-.695.672c-.244.201-.405.339-.482.414-.078.074-.09.157-.038.247l.06.416c.276 1.104.316 1.953.118 2.548-.114.427-.394.829-.838 1.206-.553.5-1.169.735-1.847.706-.885.03-1.76-.338-2.622-1.103-.246-.219-.527-.237-.843-.055-.316.183-.44.435-.375.758.239 1.246.133 2.209-.316 2.89-.385.582-.933.988-1.642 1.218-.53.125-.994.153-1.395.083-.614-.126-1.33-.585-2.148-1.376l-.33-.26c-.053-.09-.13-.12-.233-.09l-.62.176c-.31.089-.613.189-.91.3zm-5.514-2.05c.443.767 1.922.725 4.438-.126 2.264-.766 4.862-1.995 7.794-3.688 2.932-1.692 5.295-3.328 7.09-4.905 1.996-1.754 2.772-3.013 2.329-3.78-.208-.361-.76-.509-1.654-.443-.895.065-2.016.336-3.364.814a24.394 24.394 0 0 0-2.645-2.081c-.875-.578-1.671-1.02-2.39-1.327-.453-.16-.92-.16-1.4-.003-.48.157-.85.43-1.106.818l-.452.623c-.469.751-.807 1.232-1.016 1.443-.21.211-.457.354-.745.43-.287.075-.86.15-1.719.226l-.804.013c-.465.028-.886.21-1.262.548a2.122 2.122 0 0 0-.697 1.214c-.094.776-.109 1.687-.046 2.733.096 1.208.256 2.318.48 3.332-1.088.928-1.884 1.764-2.387 2.506-.504.741-.652 1.293-.444 1.654zm11.928 23.786l8.39-4.844-7.387-9.357-.775-.093c-.214-.058-.366-.06-.456-.008l-1.42.82c-1.49.86-2.457 2.125-2.905 3.797-.448 1.672-.243 3.252.617 4.74l2.656 4.602c.13.225.32.371.569.438a.904.904 0 0 0 .711-.095zm10.014-5.782l4.33-2.5-4.833-5.87.072-3.47a11.017 11.017 0 0 1-5.277 3.048l3.04 1.672 2.668 7.12zm14.687-9.561l-2.657-4.601c-.86-1.489-2.125-2.457-3.797-2.905-1.672-.448-3.252-.242-4.74.617l-1.421.82c-.09.053-.164.185-.221.399l-.307.718 4.41 11.076 8.39-4.844a.904.904 0 0 0 .438-.569.904.904 0 0 0-.095-.711z" opacity=".25"/><path d="M160.26 340.02c1.94-1.12 3.812-1.705 5.618-1.755 1.805-.05 3.007.443 3.606 1.48.6 1.038.426 2.326-.52 3.865-.946 1.538-2.389 2.867-4.329 3.987l-7.577 4.375.541 17.188c-.024.375-.171.64-.442.797l-3.924 2.265a.89.89 0 0 1-.819.067 1.009 1.009 0 0 1-.579-.613l-4.926-13.845-7.442 4.297-.103 5.292c-.024.374-.171.64-.442.796l-2.91 1.68a.89.89 0 0 1-.818.067c-.275-.112-.455-.294-.54-.546l-2.72-7.992-5.561-6.351c-.176-.2-.243-.446-.202-.74a.89.89 0 0 1 .467-.676l2.909-1.68c.27-.156.574-.15.91.016l4.635 2.557 7.442-4.297-9.527-11.189a1.009 1.009 0 0 1-.24-.808.89.89 0 0 1 .466-.676l3.924-2.265c.27-.156.574-.151.911.015l14.615 9.063 7.577-4.375z" opacity=".5"/><path d="M258.256 368.425a619.596 619.596 0 0 0-8.283-3.878c-4.13-1.945-6.882-3.274-8.254-3.985-1.975-1.024-3.462-1.985-4.461-2.882-.999-.897-1.915-2.067-2.748-3.51-1.355-2.346-2.018-4.85-1.991-7.51a15.287 15.287 0 0 1 2.001-7.471c1.308-2.319 3.135-4.155 5.48-5.51 2.346-1.354 4.85-2.017 7.51-1.99 2.663.027 5.153.694 7.471 2.001 2.319 1.308 4.155 3.134 5.51 5.48.833 1.443 1.388 2.822 1.665 4.135.277 1.314.366 3.082.266 5.304-.07 1.545-.296 4.592-.676 9.141l-.783 9.113c-.056.633-.377 1.119-.963 1.458-.586.338-1.168.373-1.744.104zm-7.631-16.342c1.488-.86 2.457-2.125 2.905-3.797.448-1.672.242-3.253-.617-4.741-.86-1.489-2.125-2.457-3.797-2.905-1.672-.448-3.253-.242-4.741.617-1.488.86-2.457 2.125-2.905 3.797-.448 1.672-.242 3.252.617 4.74.86 1.49 2.125 2.458 3.797 2.906 1.672.448 3.252.242 4.741-.617z"/><path d="M564.155 345.985l3.818.051a.841.841 0 0 1 .606.191c.172.142.287.315.347.522.613 2.833.597 5.67-.05 8.508a1.159 1.159 0 0 1-.317.544.882.882 0 0 1-.58.245l-3.819-.05a14.96 14.96 0 0 1-2.76 4.75l1.914 3.315a.99.99 0 0 1 .124.605.867.867 0 0 1-.264.559 19.928 19.928 0 0 1-7.442 4.297.867.867 0 0 1-.616-.05.99.99 0 0 1-.462-.41l-1.914-3.316a14.96 14.96 0 0 1-5.494.015l-1.865 3.332a.882.882 0 0 1-.502.38c-.207.06-.417.06-.63.003a19.393 19.393 0 0 1-7.393-4.211 1.03 1.03 0 0 1-.28-.561.841.841 0 0 1 .139-.621l1.865-3.332a16.068 16.068 0 0 1-2.735-4.736l-3.818-.051a.841.841 0 0 1-.606-.191 1.03 1.03 0 0 1-.347-.522 19.393 19.393 0 0 1 .05-8.508c.057-.214.163-.395.317-.544a.882.882 0 0 1 .58-.245l3.819.05a14.96 14.96 0 0 1 2.76-4.75l-1.915-3.315a.99.99 0 0 1-.123-.605.867.867 0 0 1 .264-.559 19.928 19.928 0 0 1 7.442-4.297.867.867 0 0 1 .616.05.99.99 0 0 1 .462.41l1.914 3.316a14.96 14.96 0 0 1 5.494-.015l1.865-3.332a.882.882 0 0 1 .502-.38c.207-.06.417-.06.63-.003a19.393 19.393 0 0 1 7.393 4.212c.15.154.242.34.279.56a.841.841 0 0 1-.138.621l-1.865 3.332a16.068 16.068 0 0 1 2.735 4.736zm-8.742 1.89c-.86-1.488-2.125-2.457-3.797-2.905-1.672-.448-3.253-.242-4.741.617-1.489.86-2.457 2.125-2.905 3.797-.448 1.672-.242 3.253.617 4.741.86 1.489 2.125 2.457 3.797 2.905 1.672.448 3.252.242 4.74-.617 1.49-.86 2.458-2.125 2.906-3.797.448-1.672.242-3.252-.617-4.741z" opacity=".5"/><path d="M659.286 334.272c.996.267 1.755.851 2.276 1.753l10.468 18.133c.521.902.648 1.851.381 2.847s-.851 1.755-1.753 2.275l-23.816 13.75c-.902.521-1.851.648-2.847.381s-1.755-.851-2.275-1.753l-13.75-23.816c-.521-.902-.648-1.851-.381-2.847s.851-1.755 1.753-2.275l18.133-10.47c.902-.52 1.85-.647 2.847-.38l8.964 2.402zm-12.456 1.238l-12.99 7.5 3.75 6.495 12.99-7.5-3.75-6.495zm23.035 19.898l-10.468-18.132c-.183-.316-.439-.5-.768-.55l-8.965-2.401a2.085 2.085 0 0 0-.669-.065l4.063 7.036c.26.451.324.926.19 1.424a1.808 1.808 0 0 1-.877 1.137l-14.073 8.125c-.45.26-.925.324-1.423.19a1.808 1.808 0 0 1-1.138-.876l-4.062-7.036-1.083.625c-.316.182-.516.433-.602.753-.086.32-.038.638.145.954l13.75 23.816c.182.316.433.516.753.602.32.086.638.038.954-.145l23.816-13.75c.316-.182.516-.433.602-.753.086-.32.038-.638-.145-.954zm-20.803-6.032c1.624-.937 3.361-1.158 5.21-.662 1.85.495 3.244 1.555 4.182 3.179.937 1.623 1.158 3.36.663 5.21-.496 1.85-1.556 3.244-3.18 4.181-1.623.938-3.36 1.159-5.21.663s-3.243-1.556-4.181-3.18c-.937-1.623-1.158-3.36-.663-5.21.496-1.85 1.556-3.243 3.18-4.18zm5.625 9.743c1.038-.599 1.714-1.485 2.028-2.66.315-1.173.173-2.279-.426-3.316-.6-1.038-1.486-1.714-2.66-2.028-1.173-.315-2.28-.173-3.317.426-1.037.6-1.713 1.486-2.028 2.66-.314 1.174-.172 2.28.427 3.317.6 1.037 1.486 1.713 2.66 2.028 1.173.314 2.279.172 3.316-.427z"/><path d="M766.78 341.313c1.744 3.022 2.603 6.254 2.576 9.698a19.578 19.578 0 0 1-2.588 9.658c-1.698 2.995-4.059 5.365-7.08 7.11-3.023 1.745-6.255 2.604-9.699 2.577a19.578 19.578 0 0 1-9.658-2.587c-2.995-1.7-5.365-4.06-7.11-7.081-1.745-3.023-2.604-6.255-2.577-9.699.026-3.443.889-6.662 2.587-9.658 1.7-2.995 4.06-5.365 7.081-7.11 3.023-1.745 6.255-2.604 9.699-2.577 3.443.026 6.662.889 9.658 2.588 2.995 1.698 5.365 4.058 7.11 7.08zm-22.79-1.818c-1.805 1.042-3.14 2.324-4.005 3.846-.827 1.38-1.298 3.065-1.412 5.055a.782.782 0 0 0 .197.653.986.986 0 0 0 .631.312l3.384.392c.213.057.426.01.639-.143a.856.856 0 0 0 .365-.617c.227-1.274.452-2.186.676-2.736.371-.816.963-1.458 1.774-1.927a4.403 4.403 0 0 1 2.503-.587c.901.05 1.534.392 1.899 1.023.286.496.33 1.042.133 1.637-.14.382-.464 1.02-.97 1.914l-.096.145c-.763 1.283-1.227 2.303-1.392 3.06-.317 1.325-.137 2.574.54 3.747l.156.27c.13.226.32.372.57.439a.904.904 0 0 0 .711-.095l3.789-2.188a.904.904 0 0 0 .438-.569.904.904 0 0 0-.095-.712l-.039-.067c-.208-.361-.21-.78-.006-1.26.122-.31.394-.829.817-1.554.756-1.399 1.226-2.512 1.41-3.34.31-1.442.048-2.884-.785-4.328-.73-1.263-1.783-2.203-3.162-2.82s-2.853-.879-4.422-.785c-1.57.095-2.986.506-4.249 1.235zm9.213 17.053a3.461 3.461 0 0 0-1.671 2.183c-.258.96-.14 1.87.356 2.726a3.461 3.461 0 0 0 2.183 1.672c.96.257 1.869.138 2.726-.356a3.461 3.461 0 0 0 1.671-2.183c.258-.96.139-1.87-.356-2.727a3.461 3.461 0 0 0-2.183-1.671 3.461 3.461 0 0 0-2.726.356zM354.081 327.444a1.786 1.786 0 0 1 1.515-.423c.566.094.992.39 1.278.886l4.063 7.036a1.74 1.74 0 0 1 .128 1.55 1.786 1.786 0 0 1-1.124 1.1l-10.68 4.001a1.61 1.61 0 0 1-1.294.025c-.43-.172-.802-.53-1.114-1.07l-2.707 1.562 1.055 1.827c1.607-.447 3.21-.35 4.812.288 1.602.64 2.833 1.703 3.692 3.192l9.688 16.779c.26.45.324.925.19 1.423a1.808 1.808 0 0 1-.877 1.138l-9.742 5.625c-.452.26-.926.324-1.424.19a1.808 1.808 0 0 1-1.138-.876l-9.648-16.712c-.86-1.488-1.172-3.097-.937-4.826.234-1.73.946-3.178 2.136-4.346l-1.054-1.827-1.015.586c-1.444.833-2.432 1.464-2.967 1.893-.798.701-1.343 1.527-1.636 2.478-.312 1.023-.345 2.425-.098 4.206.1.485-.013.94-.338 1.368-.324.428-.735.68-1.232.757-.497.076-.96-.048-1.387-.372-.428-.324-.669-.742-.723-1.252-.299-1.872-.303-3.493-.012-4.864.354-1.888 1.203-3.49 2.547-4.808-.785-.63-1.292-1.404-1.522-2.324-.23-.92-.157-1.834.22-2.743a4.196 4.196 0 0 1 1.818-2.087c.834-.482 1.715-.675 2.642-.579a4.419 4.419 0 0 1 2.442 1.026c.7.588 1.172 1.353 1.415 2.296l3.925-2.266c-.313-.541-.436-1.041-.37-1.5a1.61 1.61 0 0 1 .668-1.108l8.805-7.249zM337.4 341.676c.316-.182.516-.434.602-.754.086-.32.038-.638-.145-.954-.182-.315-.433-.516-.753-.602-.32-.086-.638-.037-.954.145-.316.182-.517.433-.602.754-.086.32-.038.638.144.953.183.316.434.517.754.603.32.086.638.037.954-.145zm13.057 7.617c-.52-.903-1.279-1.487-2.275-1.754-.996-.267-1.945-.14-2.847.38-.902.522-1.48 1.291-1.734 2.31-.254 1.019-.12 1.98.4 2.881l8.711 15.088 6.495-3.75-8.75-15.155zm7.031-14.073l-2.578-4.465-6.836 5.66 1.094 1.894 8.32-3.089z" opacity=".25"/><path d="M445.374 349.072c-.175-.2-.225-.442-.149-.727.077-.284.228-.491.453-.622l3.654-2.11c.225-.13.48-.156.765-.08.284.076.47.24.554.492l3.97 7.812c.058.206.055.434-.012.683-.067.249-.19.426-.37.53l-2.842 1.64c-.18.105-.396.123-.645.057a1.265 1.265 0 0 1-.597-.332l-4.781-7.343zm12.472 8.946c.443.767.545 1.595.307 2.485-.238.889-.74 1.555-1.508 1.998-.766.442-1.594.545-2.484.306-.89-.238-1.555-.74-1.998-1.507-.443-.767-.545-1.595-.306-2.485.238-.889.74-1.555 1.507-1.998.767-.442 1.595-.545 2.484-.306.89.238 1.556.74 1.998 1.507zm-14.062-24.357l32.488 18.771c.777.514 1.313 1.181 1.608 2.004.294.822.298 1.662.01 2.52-.286.856-.835 1.52-1.647 1.988l-32.476 18.75c-.812.469-1.66.613-2.547.433-.886-.18-1.611-.603-2.176-1.27-.565-.666-.875-1.464-.931-2.394l-.012-37.52c-.011-.956.284-1.773.885-2.451a3.975 3.975 0 0 1 2.233-1.29c.887-.18 1.742-.028 2.565.46zm-1.905 39.981a.39.39 0 0 0 .234.406c.168.084.32.086.455.008l31.123-17.969c.135-.078.21-.21.221-.398a.39.39 0 0 0-.234-.406l-31.108-17.944c-.169-.083-.32-.085-.456-.007-.135.078-.209.21-.22.398l-.015 35.912zM59.286 134.272c.996.267 1.755.851 2.276 1.753l10.468 18.133c.521.902.648 1.851.381 2.847s-.851 1.755-1.753 2.275l-23.816 13.75c-.902.521-1.851.648-2.847.381s-1.755-.851-2.275-1.753l-13.75-23.816c-.521-.902-.648-1.851-.381-2.847s.851-1.755 1.753-2.275l18.133-10.47c.902-.52 1.85-.647 2.847-.38l8.964 2.402zm-3.036 27.553c1.218-.703 2.003-1.712 2.356-3.029.352-1.316.177-2.583-.526-3.8-.703-1.219-1.713-2.004-3.029-2.357-1.316-.352-2.583-.177-3.801.526-1.218.703-2.003 1.713-2.356 3.03-.353 1.315-.177 2.582.526 3.8.703 1.218 1.713 2.003 3.029 2.356 1.316.353 2.583.177 3.8-.526zM50.83 137.44c-.104-.18-.298-.31-.583-.385l-.32-.086c-.285-.076-.517-.062-.698.042l-15.493 8.945a.904.904 0 0 0-.439.569.904.904 0 0 0 .095.712l4.063 7.036c.13.226.32.372.569.438a.904.904 0 0 0 .712-.095l15.696-9.062a.904.904 0 0 0 .439-.57.904.904 0 0 0-.096-.71l-3.945-6.834z"/><path d="M53.281 256.683c.541-.312 1.097-.392 1.666-.24.569.153 1.01.5 1.322 1.041.313.541.393 1.096.24 1.666-.152.569-.499 1.01-1.04 1.322-.542.313-1.097.393-1.666.24-.57-.152-1.01-.5-1.322-1.04-.313-.542-.393-1.097-.24-1.666.152-.57.499-1.01 1.04-1.323zm-1.479-1.311a.904.904 0 0 1-.711.095.904.904 0 0 1-.57-.438c-.676-1.173-.933-2.347-.77-3.524.145-.685.531-1.63 1.16-2.835.48-.939.754-1.608.824-2.01.19-.71.116-1.36-.222-1.946-.417-.722-1.084-1.148-2.002-1.28-1.015-.196-2.154.071-3.417.8-.948.547-1.634 1.154-2.061 1.821-.427.668-.715 1.496-.866 2.485-.012.187-.118.369-.317.544a.846.846 0 0 1-.687.216l-1.231-.1a1 1 0 0 1-.651-.347.846.846 0 0 1-.217-.687c.24-1.46.644-2.687 1.215-3.678.725-1.14 1.809-2.127 3.252-2.96 1.85-1.068 3.692-1.47 5.528-1.207 1.836.263 3.223 1.207 4.16 2.83.651 1.128.882 2.258.693 3.389-.119.73-.493 1.698-1.12 2.902-.48.94-.778 1.622-.892 2.049-.12.73-.01 1.389.328 1.975.13.226.162.463.095.712a.904.904 0 0 1-.438.569l-1.083.625zm-10.24-18.986c-2.66 1.536-4.73 3.603-6.208 6.2a16.889 16.889 0 0 0-2.244 8.378c-.02 2.988.74 5.812 2.276 8.474 1.536 2.66 3.603 4.73 6.2 6.208a16.889 16.889 0 0 0 8.378 2.244c2.988.02 5.812-.74 8.473-2.276 2.662-1.536 4.731-3.603 6.209-6.2a16.889 16.889 0 0 0 2.244-8.378c.02-2.988-.74-5.812-2.276-8.473-1.536-2.662-3.603-4.731-6.2-6.209-2.597-1.477-5.401-2.219-8.412-2.225a16.532 16.532 0 0 0-8.44 2.257zm-1.25-2.165c3.023-1.745 6.255-2.604 9.699-2.577 3.443.026 6.662.889 9.658 2.588 2.995 1.698 5.365 4.058 7.11 7.08 1.745 3.023 2.604 6.255 2.577 9.699a19.578 19.578 0 0 1-2.588 9.658c-1.698 2.995-4.059 5.365-7.08 7.11-3.023 1.745-6.255 2.604-9.699 2.577a19.578 19.578 0 0 1-9.658-2.587c-2.995-1.7-5.365-4.06-7.11-7.081-1.745-3.023-2.604-6.255-2.577-9.699.026-3.443.889-6.662 2.587-9.658 1.7-2.995 4.06-5.365 7.081-7.11z" opacity=".5"/><path d="M143.635 235.916l-7.983 4.61 6.772 14.854 8.592-4.961 4.404 16.221-.341-24.34-8.457 4.882-2.987-11.266zm-1.875-3.247c1.083-.625 2.199-.698 3.347-.219 1.15.48 1.852 1.307 2.11 2.481l1.792 6.543 4.195-2.422c.812-.469 1.654-.624 2.527-.467.873.158 1.61.575 2.21 1.25.6.676.893 1.47.878 2.38l.34 24.34c-.002.724-.167 1.376-.494 1.955a3.62 3.62 0 0 1-1.37 1.378c-1.038.599-2.124.67-3.26.213-1.136-.457-1.868-1.282-2.196-2.476l-3.21-11.498-4.33 2.5c-.948.547-1.95.66-3.008.338-1.057-.321-1.828-1.004-2.31-2.049l-6.772-14.854a3.712 3.712 0 0 1-.143-2.669c.283-.915.854-1.62 1.71-2.115l7.984-4.61z"/><path d="M267.06 238.986c.557.34 1.004.803 1.343 1.39.338.585.516 1.205.531 1.857l-.077 17.366a4.152 4.152 0 0 1-.534 1.887 3.62 3.62 0 0 1-1.37 1.377l-15.156 8.75a3.62 3.62 0 0 1-1.877.498 3.525 3.525 0 0 1-1.834-.52l-15.078-8.616a3.425 3.425 0 0 1-1.411-1.35 3.852 3.852 0 0 1-.532-1.858l.146-17.405a3.525 3.525 0 0 1 .466-1.848 3.62 3.62 0 0 1 1.37-1.377l15.156-8.75a3.62 3.62 0 0 1 1.877-.498c.666.007 1.277.18 1.834.52l15.145 8.577zm-5.603 12.796a1.088 1.088 0 0 0-.129-.692 1.088 1.088 0 0 0-.535-.458l-6.937-1.859 1.86-6.936c.03-.259-.02-.5-.15-.726-.13-.226-.301-.367-.515-.425l-4.269-1.143a1.088 1.088 0 0 0-.692.129 1.088 1.088 0 0 0-.458.535l-1.859 6.937-6.936-1.86c-.259-.03-.501.02-.727.15-.225.13-.366.301-.424.515l-1.143 4.269c-.032.258.011.489.129.692.117.203.295.356.535.458l7.004 1.82-1.926 6.975c-.031.259.018.501.148.727.13.225.302.366.516.424l4.269 1.143c.258.032.489-.011.692-.129.203-.117.355-.295.458-.535l1.859-6.936 6.936 1.858c.259.031.5-.018.726-.148.226-.13.367-.302.425-.516l1.143-4.269z" opacity=".25"/><path d="M564.196 235.587c1.25 2.165 1.872 4.467 1.867 6.906a13.545 13.545 0 0 1-1.83 6.83c-1.215 2.115-2.905 3.797-5.07 5.047-.767.443-1.55.805-2.35 1.086l-.57 2.765c-.107.543-.409.957-.905 1.244l-2.503 1.445 1.562 2.707c.26.45.324.925.19 1.423a1.808 1.808 0 0 1-.876 1.138l-2.706 1.562 1.562 2.707c.26.45.324.925.19 1.423a1.808 1.808 0 0 1-.876 1.138l-7.578 4.375c-.45.26-.925.324-1.423.19a1.808 1.808 0 0 1-1.138-.876l-3.047-5.278a1.808 1.808 0 0 1-.19-1.423l4.632-17.289a13.504 13.504 0 0 1-2.757-3.37c-1.25-2.165-1.873-4.467-1.867-6.905a13.545 13.545 0 0 1 1.83-6.83c1.215-2.115 2.905-3.797 5.07-5.047 2.165-1.25 4.467-1.873 6.905-1.867 2.44.005 4.716.615 6.83 1.83 2.115 1.214 3.798 2.904 5.048 5.07zm-13.783 3.628c.52.902 1.279 1.486 2.275 1.753.996.267 1.945.14 2.847-.38.902-.521 1.487-1.28 1.754-2.276.267-.996.14-1.945-.381-2.847-.521-.902-1.28-1.487-2.276-1.754-.996-.267-1.945-.14-2.847.381-.902.521-1.486 1.28-1.753 2.276-.267.996-.14 1.945.38 2.847z"/><path d="M656.406 262.096c-.36.208-.755.255-1.181.14a1.499 1.499 0 0 1-.953-.712l-2.5-4.33a1.499 1.499 0 0 1-.141-1.182c.114-.427.352-.744.713-.952.36-.209.754-.256 1.181-.141.427.114.745.352.953.712l2.5 4.33c.208.361.255.755.141 1.182a1.499 1.499 0 0 1-.713.953zm9.374-18.763l7.5 12.99c.521.902.648 1.851.381 2.847s-.851 1.755-1.753 2.276l-23.816 13.75c-.902.52-1.851.647-2.847.38-.996-.266-1.755-.851-2.275-1.753l-7.5-12.99c-.521-.903-.648-1.852-.381-2.848.267-.996.851-1.754 1.753-2.275l1.083-.625-2.5-4.33a12.227 12.227 0 0 1-1.67-6.253c.006-2.228.563-4.31 1.672-6.243 1.11-1.933 2.645-3.466 4.607-4.599 1.962-1.133 4.053-1.678 6.272-1.636 2.22.041 4.295.617 6.229 1.726a12.227 12.227 0 0 1 4.58 4.573l2.46 4.262 1.083-.625c.902-.52 1.851-.648 2.847-.38.996.266 1.755.85 2.275 1.753zm-25.69 10.502l17.32-10-2.5-4.33c-.911-1.579-2.134-2.812-3.67-3.7a9.728 9.728 0 0 0-4.962-1.33c-1.773.002-3.45.458-5.028 1.37-1.579.911-2.812 2.134-3.7 3.67a9.728 9.728 0 0 0-1.33 4.962c.002 1.773.458 3.45 1.37 5.028l2.5 4.33zm31.025 3.738l-7.5-12.99c-.182-.316-.433-.517-.753-.603-.32-.085-.638-.037-.954.145l-23.816 13.75c-.316.182-.516.434-.602.754-.086.32-.038.638.145.954l7.5 12.99c.182.316.433.516.753.602.32.086.638.038.954-.145l23.816-13.75c.316-.182.516-.433.602-.753.086-.32.038-.638-.145-.954z" opacity=".25"/><path d="M753.158 228.97c.902-.521 1.851-.648 2.847-.381s1.755.851 2.275 1.753l13.75 23.816c.521.902.648 1.851.381 2.847s-.851 1.755-1.753 2.275l-23.816 13.75c-.902.521-1.851.648-2.847.381s-1.755-.851-2.275-1.753l-13.75-23.816c-.521-.902-.648-1.851-.381-2.847s.851-1.755 1.753-2.275l23.816-13.75zm-6.032 20.802c.451-.26.743-.64.877-1.137.133-.498.07-.973-.19-1.424l-.626-1.082a1.808 1.808 0 0 0-1.137-.877 1.808 1.808 0 0 0-1.424.19l-1.624.938-2.03-3.518a.904.904 0 0 0-.57-.439.904.904 0 0 0-.712.096l-2.706 1.562a.904.904 0 0 0-.438.569.904.904 0 0 0 .095.712l2.031 3.518-1.624.937c-.45.26-.743.64-.876 1.138-.134.498-.07.973.19 1.424l.625 1.082c.26.451.64.743 1.138.877.498.133.972.07 1.423-.19l1.624-.938 7.031 12.178c.13.226.32.372.57.439a.904.904 0 0 0 .711-.095l2.706-1.563a.904.904 0 0 0 .439-.569.904.904 0 0 0-.095-.712l-7.032-12.178 1.624-.938zm16.512-.15l-.625-1.083a1.808 1.808 0 0 0-1.138-.877 1.808 1.808 0 0 0-1.424.19l-1.623.938-7.032-12.178a.904.904 0 0 0-.568-.439.904.904 0 0 0-.712.096l-2.707 1.562a.904.904 0 0 0-.438.569.904.904 0 0 0 .095.712l7.032 12.178-1.624.938c-.451.26-.744.64-.877 1.137-.133.498-.07.973.19 1.424l.625 1.082c.26.451.64.744 1.138.877.498.134.973.07 1.424-.19l1.624-.938 2.03 3.518c.131.226.32.372.57.439a.904.904 0 0 0 .711-.095l2.707-1.563a.904.904 0 0 0 .438-.569.904.904 0 0 0-.095-.712l-2.031-3.518 1.623-.937c.452-.26.744-.64.877-1.138.134-.498.07-.972-.19-1.424zM368.669 241.304c-2.742-.582-4.914-.23-6.517 1.056-1.783 1.39-2.806 3.786-3.069 7.185.02.349-.115.608-.408.777-.294.17-.586.158-.878-.035l-.106-.029c-1.062-.59-2.101-.982-3.116-1.178-1.94-.443-3.7-.21-5.278.702-1.398.807-2.391 1.952-2.98 3.434-.382 1.003-.66 2.397-.833 4.18.02.35-.116.608-.409.777-.293.17-.585.158-.877-.034-3.075-1.473-5.638-1.797-7.689-.974-1.915.745-3.329 2.463-4.24 5.155-.186.408-.489.612-.908.614-.42.002-.676-.18-.768-.549-.841-3.123-.855-6.272-.043-9.448.801-2.988 2.255-5.782 4.363-8.382a27.158 27.158 0 0 1 7.592-6.458 27.47 27.47 0 0 1 9.424-3.366c3.327-.538 6.485-.407 9.474.394 3.201.858 5.922 2.445 8.16 4.76.273.264.31.588.112.974-.199.385-.534.533-1.006.445zm-20.639 11.284c.45-.68 1.05-1.253 1.805-1.718a5.339 5.339 0 0 1 2.525-.782l6.055 10.487c1.042 1.805 1.296 3.703.762 5.695-.534 1.992-1.703 3.509-3.507 4.55-1.804 1.042-3.703 1.296-5.695.762-1.992-.533-3.509-1.702-4.55-3.507-.339-.586-.418-1.217-.237-1.893.182-.676.565-1.183 1.152-1.522.586-.338 1.217-.417 1.893-.236.676.181 1.183.565 1.522 1.151.338.587.846.97 1.521 1.152.676.18 1.307.102 1.894-.237.586-.338.97-.845 1.151-1.521.181-.676.102-1.307-.236-1.894l-6.055-10.487zm-3.912-16.776a26.725 26.725 0 0 0-4.33 2.5l-.703-1.217c-.339-.587-.417-1.218-.236-1.894.18-.676.565-1.183 1.151-1.521.586-.339 1.217-.418 1.893-.237.676.182 1.183.565 1.522 1.152l.703 1.217z"/><path d="M467.092 241.854c.45-.26.925-.324 1.423-.19.498.133.878.425 1.138.876.26.451.324.926.19 1.424a1.808 1.808 0 0 1-.876 1.137l-4.33 2.5.937 1.624a12.015 12.015 0 0 1 1.637 6.272l5.87 1.573c.497.133.876.426 1.137.877.26.45.324.925.19 1.423a1.808 1.808 0 0 1-.876 1.138c-.452.26-.926.324-1.424.19l-5.443-1.458a12.737 12.737 0 0 1-2.138 4.031 12.19 12.19 0 0 1-3.528 3.03l-3.248 1.874a12.19 12.19 0 0 1-4.388 1.541c-1.526.22-3.046.166-4.56-.163l-1.458 5.442a1.808 1.808 0 0 1-.877 1.138c-.45.26-.925.324-1.423.19a1.808 1.808 0 0 1-1.138-.876 1.808 1.808 0 0 1-.19-1.424l1.572-5.87a12.015 12.015 0 0 1-4.613-4.553l-.938-1.624-4.33 2.5c-.45.26-.925.324-1.423.19a1.808 1.808 0 0 1-1.138-.876 1.808 1.808 0 0 1-.19-1.424c.133-.498.425-.877.876-1.137l4.33-2.5-3.672-6.36-4.375-1.172a1.808 1.808 0 0 1-1.138-.877 1.808 1.808 0 0 1-.19-1.424c.133-.498.426-.877.877-1.138.45-.26.925-.323 1.423-.19l4.376 1.172 1.015-.586c-.964-1.668-1.432-3.443-1.405-5.323.027-1.88.499-3.64 1.416-5.283.916-1.641 2.209-2.944 3.878-3.907 1.669-.964 3.443-1.432 5.323-1.405 1.88.027 3.641.499 5.283 1.415 1.641.917 2.944 2.21 3.908 3.879l.88-.508 1.172-4.376c.133-.498.425-.877.876-1.138.451-.26.926-.323 1.424-.19.498.133.877.426 1.138.877.26.45.324.925.19 1.423l-1.172 4.376 3.672 6.36 4.33-2.5zm-25.15-4.966c-1.623.938-2.683 2.331-3.179 4.181-.495 1.85-.274 3.587.663 5.21l11.908-6.874c-.937-1.624-2.331-2.684-4.181-3.18-1.85-.495-3.587-.274-5.21.663zm17.182 26.165a8.609 8.609 0 0 0 3.203-3.202 8.594 8.594 0 0 0 1.172-4.376 8.609 8.609 0 0 0-1.173-4.375l-5.937-10.284-18.403 10.625 5.937 10.284a8.609 8.609 0 0 0 3.203 3.203 8.594 8.594 0 0 0 4.375 1.173 8.609 8.609 0 0 0 4.375-1.173l-7.344-12.72a.904.904 0 0 1-.095-.712.904.904 0 0 1 .439-.568l1.623-.938a.904.904 0 0 1 .712-.095.904.904 0 0 1 .569.438l7.344 12.72z" opacity=".5"/><path d="M155.996 157.01l1.088.635c.123.11.201.245.234.406a.753.753 0 0 1-.075.495l-1.347 2.04 2.44-.146a.753.753 0 0 1 .467.182c.123.11.201.245.234.406l.006 1.26a.47.47 0 0 1-.115.427.723.723 0 0 1-.406.234l-4.359.262-2.406 3.644a.723.723 0 0 1-.406.235.47.47 0 0 1-.427-.115l-1.088-.634a.723.723 0 0 1-.235-.406.753.753 0 0 1 .076-.495l1.347-2.04-2.441.146a.753.753 0 0 1-.466-.182.723.723 0 0 1-.234-.406l-.006-1.26a.47.47 0 0 1 .114-.427.723.723 0 0 1 .406-.234l4.36-.262 2.406-3.645a.723.723 0 0 1 .406-.234.47.47 0 0 1 .427.114zm8.105-16.587a16.367 16.367 0 0 1 2.067 6.159 15.34 15.34 0 0 1-.538 6.49l-.458 1.708 3.047 5.277c.417.722.516 1.491.296 2.31-.219.818-.712 1.448-1.479 1.891l-17.32 10c-.767.443-1.56.554-2.378.335-.818-.219-1.435-.69-1.852-1.411l-3.242-5.616-5.135-6.237a82.15 82.15 0 0 1-7.928-11.39 8.194 8.194 0 0 1-1.12-4.36 8.991 8.991 0 0 1 1.226-4.361 8.609 8.609 0 0 1 3.203-3.202l11.84-6.836a8.609 8.609 0 0 1 4.375-1.173c1.563 0 3.015.379 4.356 1.139a8.4 8.4 0 0 1 3.183 3.169l1.289 2.232a8.19 8.19 0 0 1 3.794 1.103 7.447 7.447 0 0 1 2.774 2.773zm-3.248 1.875c-.573-.992-1.433-1.623-2.581-1.892-1.148-.27-2.24-.105-3.278.494l-2.097 1.21c-.722.418-1.215 1.048-1.48 1.892-.264.844-.194 1.616.21 2.315.403.7.969 1.185 1.697 1.456.728.271 1.434.27 2.117-.005a.98.98 0 0 1 .456.008.53.53 0 0 1 .33.26l1.29 2.233a.597.597 0 0 1 .045.47.687.687 0 0 1-.342.423c-1.593.679-3.233.754-4.922.225-1.688-.529-2.975-1.56-3.86-3.093-.26-.451-.483-1.045-.667-1.78l-4.804 2.773c-2.12 1.224-4.373 1.593-6.759 1.106a.49.49 0 0 1-.418-.255.49.49 0 0 1-.012-.49l.276-1.241a.53.53 0 0 1 .26-.33.84.84 0 0 1 .484-.1c1.746.316 3.385.03 4.919-.855l5.954-3.437c.15-.99.51-1.904 1.078-2.743a6.617 6.617 0 0 1 2.205-2.04l2.165-1.25.377-.127c.09-.052.134-.108.13-.166-.003-.058-.083-.222-.24-.493l-.39-.676c-.677-1.173-1.674-1.936-2.99-2.288-1.316-.353-2.583-.178-3.8.525l-11.841 6.836c-1.218.703-2.014 1.72-2.39 3.049-.375 1.329-.224 2.58.453 3.753a79.23 79.23 0 0 0 4.781 7.343 931.423 931.423 0 0 0 5.866 7.348l2.115 2.568 1.691-.976a.597.597 0 0 1 .47-.046c.178.048.306.14.384.275l.625 1.082a.597.597 0 0 1 .045.47.597.597 0 0 1-.274.384l-1.624.937 1.875 3.248 16.238-9.375-1.875-3.248-1.624.938a.597.597 0 0 1-.47.046.597.597 0 0 1-.383-.275l-.625-1.082a.597.597 0 0 1-.046-.47.597.597 0 0 1 .274-.384l1.624-.938c-.26-.45-.31-.903-.151-1.356l.686-2.561a12.27 12.27 0 0 0 .419-4.978 12.386 12.386 0 0 0-1.596-4.717z" opacity=".25"/><path d="M255.871 133.357c.996.267 1.755.851 2.276 1.753l12.968 22.463c.521.902.648 1.851.381 2.847s-.851 1.755-1.753 2.276l-19.486 11.25c-.902.52-1.851.647-2.847.38-.996-.266-1.755-.851-2.275-1.753l-16.25-28.146c-.521-.902-.648-1.851-.381-2.847s.851-1.755 1.753-2.275l13.803-7.97c.902-.52 1.85-.647 2.847-.38l8.964 2.402zm-1.399 3.514l-8.11-2.173 2.968 5.142 5.142-2.969zm-6.09 33.827l19.486-11.25-11.25-19.486-7.037 4.063c-.45.26-.925.324-1.423.19a1.808 1.808 0 0 1-1.138-.876l-4.062-7.037-10.826 6.25 16.25 28.146zm2.41-11.765c.141.038.276.14.403.308a.63.63 0 0 1 .104.571l-.447 1.882c-.057.214-.165.366-.323.457-.158.091-.343.108-.557.051l-5.966-1.427c-.187-.012-.333-.108-.437-.289-.104-.18-.115-.354-.031-.523l1.747-5.88c.057-.213.165-.366.322-.457.158-.09.344-.108.557-.05l1.854.553a.63.63 0 0 1 .442.376c.082.194.104.361.066.504l-1.1 3.25 3.365.674zm.682-11.942a.753.753 0 0 1 .495.076.657.657 0 0 1 .341.434l3.623 14.868c.059.207.04.383-.056.529a.773.773 0 0 1-.454.307l-1.897.464a.753.753 0 0 1-.495-.075.657.657 0 0 1-.341-.435l-3.623-14.868c-.059-.207-.04-.383.056-.528a.773.773 0 0 1 .454-.308l1.897-.464zm9.52 2.894c.187.012.333.109.437.289.104.18.114.355.031.523l-1.747 5.88c-.057.214-.165.366-.323.457-.157.091-.343.108-.556.051l-1.854-.554a.63.63 0 0 1-.442-.376c-.082-.193-.104-.361-.066-.503l1.1-3.252-3.365-.673c-.143-.038-.277-.14-.404-.308a.63.63 0 0 1-.104-.571l.447-1.882c.057-.213.165-.366.323-.457.158-.091.343-.108.557-.05l5.965 1.426z"/><path d="M551.982 130.37l15.077 8.616c.558.34 1.005.803 1.344 1.39.338.585.516 1.205.531 1.857l-.145 17.405a3.525 3.525 0 0 1-.466 1.848 3.62 3.62 0 0 1-1.37 1.377l-15.156 8.75a3.62 3.62 0 0 1-1.877.498 3.525 3.525 0 0 1-1.834-.52l-15.146-8.577a3.852 3.852 0 0 1-1.343-1.389 3.425 3.425 0 0 1-.464-1.897l.078-17.366a3.525 3.525 0 0 1 .466-1.848 3.62 3.62 0 0 1 1.37-1.377l15.156-8.75a3.62 3.62 0 0 1 1.877-.498c.666.007 1.3.167 1.902.481zm13.096 29.245l.077-17.365-15.077-8.615-15.156 8.75-.077 17.365 15.077 8.615 15.156-8.75zm-5.749-4.8c-.057.214-.198.385-.424.516-.225.13-.467.18-.726.148l-6.617-1.773-1.772 6.617c-.103.24-.267.424-.492.555-.226.13-.445.166-.659.11l-2.454-.659c-.214-.057-.386-.198-.516-.424a1.143 1.143 0 0 1-.148-.726l1.773-6.616-6.617-1.773a1.143 1.143 0 0 1-.555-.492c-.13-.226-.166-.445-.11-.659l.659-2.454c.057-.214.198-.385.424-.516.225-.13.467-.18.726-.148l6.616 1.773 1.773-6.617c.103-.24.267-.424.492-.554.226-.13.445-.167.659-.11l2.454.658c.214.057.385.198.516.424.13.225.18.467.148.726l-1.773 6.617 6.617 1.772c.24.103.424.267.554.492.13.226.167.445.11.659l-.658 2.454z" opacity=".25"/><path d="M676.272 152.432c.777.514 1.313 1.181 1.608 2.004.294.822.298 1.662.01 2.52-.286.856-.835 1.52-1.647 1.988l-32.476 18.75c-.812.469-1.66.613-2.547.433-.886-.18-1.611-.603-2.176-1.27-.565-.666-.875-1.464-.931-2.394l-.012-37.52c-.011-.956.284-1.773.885-2.451a3.975 3.975 0 0 1 2.233-1.29c.887-.18 1.742-.028 2.565.46l32.488 18.77zm-1.27 2.176l-32.487-18.77c-.434-.23-.854-.23-1.26.005-.406.235-.618.597-.635 1.088l.012 37.521c.028.465.248.82.659 1.063.411.244.82.248 1.226.014l32.476-18.75c.406-.234.606-.59.6-1.068-.005-.478-.202-.846-.59-1.103zm-20.466 4.24c.541-.313 1.097-.393 1.666-.24.569.152 1.01.498 1.322 1.04.313.541.393 1.096.24 1.665-.152.57-.5 1.01-1.04 1.323-.542.312-1.097.392-1.666.24-.57-.153-1.01-.5-1.323-1.04-.312-.542-.392-1.097-.24-1.666.153-.57.5-1.01 1.041-1.323zm-9.025-13.915l1.488-.86c.27-.155.53-.2.78-.133a.693.693 0 0 1 .5.477l6.09 11.64c.13.226.162.463.095.712a.904.904 0 0 1-.439.569l-.54.312a.904.904 0 0 1-.713.095c-.249-.066-.425-.19-.53-.37l-7.075-11.161a.693.693 0 0 1-.162-.673c.066-.249.235-.452.506-.608zm9.025 13.914c.541-.312 1.097-.392 1.666-.24.569.153 1.01.5 1.322 1.04.313.542.393 1.097.24 1.666-.152.57-.5 1.01-1.04 1.323-.542.312-1.097.392-1.666.24-.57-.153-1.01-.5-1.323-1.04-.312-.542-.392-1.097-.24-1.666.153-.57.5-1.01 1.041-1.323z"/><path d="M755.323 127.72c.902-.521 1.851-.648 2.847-.381s1.755.851 2.276 1.753l13.75 23.816c.52.902.647 1.851.38 2.847-.266.996-.851 1.755-1.753 2.275l-28.146 16.25c-.902.521-1.851.648-2.847.381s-1.755-.851-2.276-1.753l-13.75-23.816c-.52-.902-.647-1.851-.38-2.847.266-.996.851-1.755 1.753-2.275l28.146-16.25zm15.39 26.657l-13.28-23.004c-.053-.09-.15-.154-.292-.192-.143-.038-.259-.031-.35.02l-27.333 15.782c-.09.052-.154.15-.192.291-.039.143-.032.259.02.35l13.282 23.003c.052.09.149.154.291.192.143.039.259.032.349-.02l27.334-15.782c.09-.052.154-.149.192-.291.039-.143.032-.259-.02-.349zm-18.074-4.9l6.577 1.705c.24.102.425.266.555.492.13.225.144.458.042.697l-.63 2.348a.742.742 0 0 1-.384.583c-.226.13-.468.18-.727.149l-6.549-1.812-1.744 6.51c-.076.284-.227.492-.453.622-.225.13-.445.167-.658.11l-2.387-.697a.742.742 0 0 1-.583-.385 1.143 1.143 0 0 1-.149-.726l1.812-6.55-6.51-1.744c-.284-.076-.492-.227-.622-.453-.13-.225-.167-.445-.11-.658l.658-2.455c.058-.213.199-.385.424-.515.226-.13.468-.18.727-.149l6.549 1.812 1.705-6.577c.102-.24.266-.425.492-.555.225-.13.445-.166.658-.11l2.455.658c.213.058.385.199.515.425.13.225.18.467.149.726l-1.812 6.549zM356.094 161.555c-.542.312-1.097.392-1.666.24-.57-.153-1.01-.5-1.322-1.041l-2.5-4.33c-.313-.541-.393-1.097-.24-1.666.152-.569.499-1.01 1.04-1.322.541-.313 1.097-.393 1.666-.24.569.152 1.01.5 1.322 1.04l2.5 4.33c.313.542.393 1.097.24 1.666-.152.57-.499 1.01-1.04 1.323zm8.436-20.387l8.75 15.155c.521.902.648 1.851.381 2.847s-.851 1.755-1.753 2.276l-23.816 13.75c-.902.52-1.851.647-2.847.38-.996-.266-1.755-.851-2.275-1.753l-8.75-15.155c-.521-.903-.648-1.852-.381-2.848.267-.996.851-1.754 1.753-2.275l2.165-1.25-1.875-3.248c-1.015-1.759-1.513-3.636-1.493-5.633.02-1.996.52-3.864 1.501-5.603.981-1.739 2.35-3.116 4.11-4.131 1.76-1.016 3.637-1.514 5.633-1.494 1.996.02 3.87.532 5.622 1.535a11.066 11.066 0 0 1 4.152 4.144l1.836 3.18 2.165-1.25c.902-.52 1.851-.648 2.847-.381s1.755.851 2.275 1.754zm-23.525 9.252l12.99-7.5-1.875-3.248c-1.042-1.804-2.558-2.973-4.55-3.507-1.993-.533-3.89-.28-5.695.762-1.804 1.042-2.973 2.559-3.507 4.55-.534 1.993-.28 3.891.762 5.695l1.875 3.248zm20.278-7.377l-23.816 13.75 8.75 15.155 23.816-13.75-8.75-15.155z" opacity=".5"/><path d="M463.367 136.961a.58.58 0 0 1 .35.294.58.58 0 0 1 .08.45l-.973 3.629c-.057.213-.153.36-.289.437-.135.078-.31.089-.523.032l-1.174-.315-7.034 26.253c-.572 2.135-1.828 3.762-3.767 4.882a8.176 8.176 0 0 1-3.227 1.051 7.507 7.507 0 0 1-3.457-.44c-2.025-.695-3.51-2.018-4.456-3.968-.945-1.95-1.132-3.992-.56-6.126l6.96-25.76-1.214-.381a.53.53 0 0 1-.33-.26.84.84 0 0 1-.1-.485l.973-3.628a.84.84 0 0 1 .328-.37.84.84 0 0 1 .484-.099l17.929 4.804zm-8.091 10.986l2.04-7.402-8.43-2.26-4.233 15.795 10.623-6.133zM176.272 52.432c.777.514 1.313 1.181 1.608 2.004.294.822.298 1.662.01 2.52-.286.856-.835 1.52-1.647 1.988l-32.476 18.75c-.812.469-1.66.613-2.547.433-.886-.18-1.611-.603-2.176-1.27-.565-.666-.875-1.464-.931-2.394l-.012-37.52c-.011-.956.284-1.773.885-2.451a3.975 3.975 0 0 1 2.233-1.29c.887-.18 1.742-.028 2.565.46l32.488 18.77zm-22.44 5.197a3.461 3.461 0 0 0-1.67 2.183c-.258.96-.14 1.87.356 2.726a3.461 3.461 0 0 0 2.182 1.672c.96.257 1.87.139 2.727-.356a3.461 3.461 0 0 0 1.671-2.183c.258-.96.139-1.87-.356-2.726a3.461 3.461 0 0 0-2.183-1.672 3.461 3.461 0 0 0-2.726.356zm-9.421-9.445l5.853 8.89c.105.18.281.303.53.37a.904.904 0 0 0 .712-.095l3.248-1.875a.904.904 0 0 0 .438-.569c.067-.249.048-.464-.056-.644l-4.771-9.514c-.157-.27-.36-.44-.608-.506a.904.904 0 0 0-.712.095l-4.33 2.5a.904.904 0 0 0-.439.569c-.066.249-.022.509.135.78z"/><path d="M254.467 37.956l2.814.812c.498.133.877.425 1.138.876.26.451.324.926.19 1.424l-.486 1.814a16.536 16.536 0 0 1 4.577 5.116c1.459 2.526 2.181 5.236 2.168 8.13-.013 2.894-.726 5.591-2.14 8.091-1.412 2.5-3.405 4.492-5.976 5.976-2.57 1.485-5.292 2.214-8.164 2.188a16.418 16.418 0 0 1-8.057-2.159c-2.5-1.413-4.492-3.405-5.977-5.976-1.484-2.571-2.213-5.293-2.187-8.164a16.418 16.418 0 0 1 2.159-8.058c1.413-2.5 3.405-4.492 5.976-5.976a16.536 16.536 0 0 1 6.522-2.142l.486-1.814c.134-.498.426-.877.877-1.138.451-.26.926-.324 1.424-.19l2.774.743 1.487-5.55 1.882.448-1.487 5.55zm4.385-9.748a.904.904 0 0 1 .712-.095.904.904 0 0 1 .569.438c.13.226.162.463.095.712a.904.904 0 0 1-.438.569l-1.624.937a.904.904 0 0 1-.712.095.904.904 0 0 1-.569-.438.904.904 0 0 1-.095-.712.904.904 0 0 1 .438-.569l1.624-.937zm-6.403-1.716a.904.904 0 0 1 .712-.095.904.904 0 0 1 .569.438l.937 1.624c.13.226.162.463.095.712a.904.904 0 0 1-.438.569.904.904 0 0 1-.712.095.904.904 0 0 1-.569-.438l-.937-1.624a.904.904 0 0 1-.095-.712.904.904 0 0 1 .438-.569zm4.449 2.393c-.076.285-.216.486-.419.603-.203.117-.447.137-.731.061-.285-.076-.486-.216-.603-.419-.117-.203-.138-.446-.061-.731l.486-1.814a.742.742 0 0 1 .385-.583.85.85 0 0 1 .731-.062c.262.09.452.236.569.439.117.203.16.433.129.692l-.486 1.814zm-4.6 2.656l-1.815-.486a1.088 1.088 0 0 1-.535-.458c-.117-.203-.15-.44-.095-.711a.85.85 0 0 1 .418-.603.742.742 0 0 1 .698-.042l1.814.486c.285.076.486.216.603.419.117.203.149.44.095.712a.85.85 0 0 1-.419.602c-.225.13-.48.158-.765.081zm5.928-.355l1.814.486c.24.102.418.255.535.458.117.203.15.44.095.711a.85.85 0 0 1-.418.603.742.742 0 0 1-.698.042L257.74 33c-.285-.076-.486-.216-.603-.42-.117-.202-.149-.44-.095-.71a.85.85 0 0 1 .419-.604c.225-.13.48-.157.765-.08zm-17.344 26.522c-.677-1.173-.834-2.435-.472-3.787.362-1.352 1.13-2.366 2.302-3.044.316-.182.517-.433.603-.753.085-.32.037-.638-.145-.954-.182-.316-.434-.517-.754-.602-.32-.086-.638-.038-.954.144-1.804 1.042-2.973 2.559-3.507 4.551-.533 1.992-.28 3.89.762 5.695.182.315.434.516.754.602.32.086.638.037.954-.145.315-.182.516-.433.602-.754.086-.32.037-.638-.145-.953z" opacity=".5"/><path d="M562.937 38.054a.89.89 0 0 1 .945-.005c.314.18.459.457.434.832a11.135 11.135 0 0 1-1.492 5.462c-.97 1.704-2.336 3.063-4.095 4.079-1.76 1.015-3.63 1.524-5.614 1.527a11.158 11.158 0 0 1-5.583-1.468c-1.739-.98-3.116-2.35-4.132-4.11a11.066 11.066 0 0 1-1.512-5.666 11.37 11.37 0 0 1 1.481-5.637c.98-1.739 2.35-3.116 4.11-4.132 1.76-1.016 3.619-1.518 5.58-1.507 1.96.01 3.786.49 5.476 1.438.337.167.504.431.503.793a.89.89 0 0 1-.476.816l-7.104 4.102-.52 5.35 4.895 2.227 7.104-4.101zM555 51.026l-5.787 21.383c-.317 1.325-1.084 2.34-2.302 3.043-1.218.703-2.485.878-3.801.526-1.316-.353-2.326-1.138-3.03-2.356-.702-1.218-.86-2.48-.472-3.787l5.68-21.412a12.3 12.3 0 0 0 4.585 2.315 12.3 12.3 0 0 0 5.127.288zm-8.508 17.45a1.808 1.808 0 0 0-1.137-.876 1.808 1.808 0 0 0-1.424.19c-.451.261-.743.64-.877 1.138-.133.498-.07.973.19 1.424.261.45.64.743 1.138.877.498.133.973.07 1.424-.19.45-.261.743-.64.877-1.139.133-.498.07-.972-.19-1.423z"/><path d="M659.988 30.8c1.488-.86 3.069-1.065 4.74-.617 1.672.448 2.938 1.416 3.798 2.904l6.25 10.826c.859 1.488 1.065 3.068.617 4.74-.448 1.672-1.417 2.938-2.905 3.797L640.012 71.2c-1.488.86-3.069 1.065-4.74.617-1.673-.448-2.938-1.416-3.798-2.904l-6.25-10.826c-.859-1.488-1.065-3.068-.617-4.74.448-1.672 1.417-2.938 2.905-3.797l32.476-18.75zm-15.813 35.11l-10-17.32-5.413 3.125c-.902.52-1.487 1.28-1.753 2.275-.267.996-.14 1.945.38 2.847l6.25 10.826c.521.902 1.28 1.486 2.276 1.753.996.267 1.945.14 2.847-.38l5.413-3.126zm19.485-11.25l-10-17.32-17.32 10 10 17.32 17.32-10zm8.95-9.497l-6.25-10.826c-.52-.902-1.279-1.486-2.275-1.753-.996-.267-1.945-.14-2.847.38l-5.413 3.126 10 17.32 5.413-3.125c.902-.52 1.486-1.279 1.753-2.275.267-.996.14-1.945-.38-2.847zM645.66 50.98c-.361.208-.755.255-1.182.14a1.499 1.499 0 0 1-.953-.712 1.499 1.499 0 0 1-.14-1.182c.114-.427.351-.744.712-.953.361-.208.755-.255 1.182-.14.427.114.744.351.953.712.208.361.255.755.14 1.182a1.499 1.499 0 0 1-.712.953zm6.495-3.75c-.361.208-.755.255-1.182.14a1.499 1.499 0 0 1-.953-.712 1.499 1.499 0 0 1-.14-1.182c.114-.427.351-.744.712-.953.361-.208.755-.255 1.182-.14.427.114.744.351.953.712.208.361.255.755.14 1.182a1.499 1.499 0 0 1-.712.953zm-2.745 10.245c-.361.208-.755.255-1.182.14a1.499 1.499 0 0 1-.953-.712 1.499 1.499 0 0 1-.14-1.182c.114-.427.351-.744.712-.953.36-.208.755-.255 1.182-.14.427.114.744.352.953.712.208.361.255.755.14 1.182a1.499 1.499 0 0 1-.712.953zm6.495-3.75c-.361.208-.755.255-1.182.14a1.499 1.499 0 0 1-.953-.712 1.499 1.499 0 0 1-.14-1.182c.114-.427.351-.744.712-.953.361-.208.755-.255 1.182-.14.427.114.744.352.953.712.208.361.255.755.14 1.182a1.499 1.499 0 0 1-.712.953z" opacity=".5"/><path d="M751.856 58.589l5.68 2.494-19.69 11.367c-.901.521-1.85.648-2.846.381s-1.755-.851-2.276-1.753l-8.75-15.156c-.52-.902-.647-1.85-.38-2.847.266-.996.85-1.754 1.753-2.275L729 48.69l5.68 2.495-5.75 3.32 7.5 12.99 15.426-8.906zm16.982-24.96l5.625 9.742c.26.452.324.926.19 1.424a1.808 1.808 0 0 1-.876 1.138l-.542.312.625 1.083c.521.902.648 1.851.381 2.847s-.851 1.755-1.753 2.275l-5.548 3.203 4.31 1.842c.48.204.815.552 1.008 1.042.193.49.187.975-.018 1.453l-.46 1.078a1.979 1.979 0 0 1-.82.924c-.54.313-1.1.335-1.676.066L728.75 44.505a1.808 1.808 0 0 1-1.007-1.042 1.847 1.847 0 0 1 .017-1.453l.46-1.078c.186-.408.46-.716.82-.924.542-.313 1.1-.335 1.676-.066l7.69 3.319L759.988 30.8c.902-.521 1.851-.648 2.847-.381s1.755.851 2.275 1.753l.625 1.083.542-.313c.45-.26.925-.324 1.423-.19.498.133.878.426 1.138.877zm-2.768 5.206l-2.165 1.25-2.5-4.33-17.32 10 17.175 7.404 7.645-4.414-2.5-4.33 2.165-1.25-2.5-4.33zM362.586 42.02c.54.83 1.035 1.687 1.485 2.57l2.8.007c.42-.002.813.132 1.18.402.366.27.595.588.687.956a19.555 19.555 0 0 1-.062 10.05c-.07.4-.271.727-.606.98a2.153 2.153 0 0 1-1.2.423l-2.8-.007a18.307 18.307 0 0 1-1.49 2.574l1.405 2.436c.235.406.324.82.268 1.244a1.795 1.795 0 0 1-.548 1.083 19.156 19.156 0 0 1-8.66 5 1.795 1.795 0 0 1-1.212-.067c-.395-.163-.71-.448-.944-.854l-1.406-2.435c-.975.081-1.967.083-2.975.003l-1.394 2.429a2.153 2.153 0 0 1-.965.828 1.519 1.519 0 0 1-1.153.034 19.555 19.555 0 0 1-8.734-4.97c-.272-.265-.434-.622-.484-1.074-.05-.452.03-.86.241-1.222l1.394-2.43a28.222 28.222 0 0 1-1.484-2.57l-2.8-.007a1.936 1.936 0 0 1-1.18-.402c-.366-.27-.595-.588-.687-.956a19.555 19.555 0 0 1 .062-10.05c.07-.4.271-.727.606-.98a2.153 2.153 0 0 1 1.2-.423l2.8.007c.435-.913.932-1.77 1.49-2.574l-1.405-2.436c-.235-.406-.324-.82-.268-1.244.057-.423.24-.784.548-1.083a19.156 19.156 0 0 1 8.66-5 1.795 1.795 0 0 1 1.212.067c.394.163.71.448.943.854l1.407 2.435a18.307 18.307 0 0 1 2.975-.003l1.394-2.429c.257-.389.578-.665.965-.828a1.519 1.519 0 0 1 1.153-.034 19.555 19.555 0 0 1 8.734 4.97c.272.265.434.622.484 1.074.05.452-.03.86-.241 1.222l-1.395 2.43zm-1.125 6.332c-.536-1.555-.974-2.625-1.312-3.211-.339-.587-1.047-1.5-2.125-2.743l2-3.41a16.338 16.338 0 0 0-4.605-2.664l-2 3.41c-1.603-.277-2.75-.412-3.437-.406-.688.006-1.83.14-3.424.398l-1.953-3.383a15.17 15.17 0 0 0-4.6 2.657l1.952 3.382c-1.021 1.252-1.707 2.174-2.056 2.766-.35.593-.805 1.653-1.367 3.18l-3.953.027c-.29 1.791-.288 3.564.004 5.32l3.953-.027c.537 1.555.975 2.625 1.313 3.211.339.587 1.047 1.501 2.125 2.743l-2 3.41a16.338 16.338 0 0 0 4.605 2.664l2-3.41c1.603.277 2.749.412 3.437.406.688-.006 1.83-.14 3.424-.398l1.953 3.383a15.17 15.17 0 0 0 4.6-2.656l-1.952-3.383c1.021-1.252 1.707-2.174 2.056-2.766.35-.593.805-1.653 1.367-3.18l3.953-.027c.29-1.791.288-3.564-.004-5.32l-3.954.027zm-15.211-3.847c1.804-1.042 3.702-1.296 5.694-.762 1.993.534 3.51 1.703 4.551 3.507 1.042 1.804 1.296 3.702.762 5.695-.534 1.992-1.703 3.509-3.507 4.55-1.804 1.042-3.702 1.296-5.695.762-1.992-.534-3.509-1.703-4.55-3.507-1.042-1.804-1.296-3.702-.762-5.694.534-1.993 1.703-3.51 3.507-4.551zm5.625 9.743c.902-.521 1.487-1.28 1.753-2.276.267-.996.14-1.945-.38-2.847-.521-.902-1.28-1.487-2.276-1.753-.996-.267-1.945-.14-2.847.38-.902.521-1.487 1.28-1.754 2.276-.266.996-.14 1.945.381 2.847.521.902 1.28 1.487 2.276 1.754.996.266 1.945.14 2.847-.381z"/><path d="M455.188 27.8c.29-.227.624-.3 1.002-.218.378.083.659.282.841.597l3.75 6.496c.182.315.215.657.097 1.026a1.15 1.15 0 0 1-.69.76l-11.763 4.625c-.728.3-1.33-.013-1.806-.941l-.078-.136-3.248 1.875 1.29 2.233c1.689-.615 3.404-.613 5.145.006 1.74.62 3.066 1.718 3.978 3.297l9.687 16.779c.26.45.324.925.19 1.424a1.808 1.808 0 0 1-.876 1.137l-9.743 5.625c-.451.26-.925.324-1.424.19a1.808 1.808 0 0 1-1.137-.876l-9.649-16.712c-.911-1.578-1.206-3.287-.885-5.127.321-1.84 1.17-3.337 2.548-4.493l-1.289-2.233-1.083.625c-1.56.84-2.638 1.524-3.237 2.05-1.113.883-1.894 1.875-2.341 2.975-.576 1.295-.714 2.878-.415 4.75.02.35-.071.658-.277.927a1.174 1.174 0 0 1-.812.469 1.189 1.189 0 0 1-.907-.243 1.297 1.297 0 0 1-.503-.792c-.567-4.003.434-7.167 3-9.49a4.226 4.226 0 0 1-1.89-2.338c-.34-1.006-.341-1.997-.003-2.974.338-.977.97-1.733 1.894-2.267.925-.534 1.888-.714 2.89-.54a4.454 4.454 0 0 1 2.53 1.335c.685.717 1.082 1.586 1.19 2.606l4.127-2.383-.078-.135c-.566-.876-.537-1.554.087-2.035l9.888-7.874zm-3.647 20.87c-.677-1.173-1.692-1.94-3.044-2.303-1.352-.362-2.614-.205-3.787.473-1.217.703-1.996 1.724-2.336 3.062-.34 1.34-.158 2.618.545 3.835l9.336 16.17 8.66-5-9.374-16.237zm-15.703-9.698c-.451.26-.743.64-.877 1.137-.133.499-.07.973.19 1.424.261.451.64.743 1.138.877.498.133.973.07 1.424-.19.451-.261.743-.64.877-1.138.133-.498.07-.973-.19-1.424a1.808 1.808 0 0 0-1.138-.877 1.808 1.808 0 0 0-1.424.19zm22.036-4.333l-2.266-3.924L447.69 37l.781 1.354 9.403-3.715z" opacity=".25"/></g></svg>